Barrio.ufo
<glyph name="quotedbl" format="1">
  <advance width="373"/>
  <unicode hex="0022"/>
  <outline>
    <contour>
      <point x="149" y="727" type="curve"/>
      <point x="149" y="742"/>
      <point x="145" y="750"/>
      <point x="136" y="750" type="curve"/>
      <point x="87" y="750" type="line" smooth="yes"/>
      <point x="72" y="750"/>
      <point x="69" y="742"/>
      <point x="64" y="723" type="curve"/>
      <point x="64" y="669" type="line"/>
      <point x="67" y="665"/>
      <point x="68" y="656"/>
      <point x="68" y="642" type="curve"/>
      <point x="68" y="629"/>
      <point x="67" y="611"/>
      <point x="64" y="589" type="curve"/>
      <point x="64" y="477" type="line" smooth="yes"/>
      <point x="64" y="458"/>
      <point x="69" y="441"/>
      <point x="72" y="441" type="curve"/>
      <point x="131" y="441" type="line" smooth="yes"/>
      <point x="140" y="441"/>
      <point x="140" y="472"/>
      <point x="140" y="486" type="curve"/>
      <point x="140" y="607" type="line"/>
      <point x="144" y="638"/>
      <point x="144" y="664"/>
      <point x="144" y="683" type="curve"/>
      <point x="144" y="696"/>
      <point x="149" y="714"/>
    </contour>
    <contour>
      <point x="314" y="727" type="curve"/>
      <point x="314" y="742"/>
      <point x="310" y="750"/>
      <point x="301" y="750" type="curve"/>
      <point x="251" y="750" type="line" smooth="yes"/>
      <point x="236" y="750"/>
      <point x="229" y="741"/>
      <point x="229" y="723" type="curve"/>
      <point x="229" y="464" type="line" smooth="yes"/>
      <point x="229" y="449"/>
      <point x="225" y="441"/>
      <point x="242" y="441" type="curve"/>
      <point x="297" y="441" type="line" smooth="yes"/>
      <point x="305" y="441"/>
      <point x="305" y="469"/>
      <point x="305" y="477" type="curve"/>
      <point x="305" y="607" type="line" smooth="yes"/>
      <point x="305" y="638"/>
      <point x="309" y="664"/>
      <point x="309" y="683" type="curve"/>
      <point x="309" y="696"/>
      <point x="309" y="714"/>
    </contour>
  </outline>
</glyph>
<glyph name="numbersign" format="1">
  <advance width="663"/>
  <unicode hex="0023"/>
  <outline>
    <contour>
      <point x="505" y="536" type="curve"/>
      <point x="502" y="521"/>
      <point x="503" y="515"/>
      <point x="492" y="515" type="curve"/>
      <point x="396" y="515" type="line"/>
      <point x="368" y="511"/>
      <point x="332" y="507"/>
      <point x="319" y="507" type="curve"/>
      <point x="312" y="507"/>
      <point x="305" y="506"/>
      <point x="300" y="506" type="curve"/>
      <point x="294" y="506"/>
      <point x="290" y="507"/>
      <point x="290" y="511" type="curve"/>
      <point x="286" y="515"/>
      <point x="293" y="539"/>
      <point x="297" y="567" type="curve"/>
      <point x="301" y="596"/>
      <point x="308" y="620"/>
      <point x="311" y="631" type="curve"/>
      <point x="313" y="638"/>
      <point x="317" y="644"/>
      <point x="317" y="650" type="curve"/>
      <point x="317" y="654"/>
      <point x="314" y="658"/>
      <point x="304" y="659" type="curve"/>
      <point x="285" y="663"/>
      <point x="277" y="666"/>
      <point x="262" y="666" type="curve"/>
      <point x="202" y="666" type="line" smooth="yes"/>
      <point x="181" y="666"/>
      <point x="163" y="666"/>
      <point x="163" y="638" type="curve"/>
      <point x="163" y="606"/>
      <point x="151" y="549"/>
      <point x="148" y="532" type="curve"/>
      <point x="141" y="515"/>
      <point x="142" y="507"/>
      <point x="127" y="507" type="curve"/>
      <point x="116" y="507"/>
      <point x="99" y="504"/>
      <point x="92" y="504" type="curve"/>
      <point x="88" y="500"/>
      <point x="85" y="493"/>
      <point x="82" y="486" type="curve"/>
      <point x="78" y="479"/>
      <point x="78" y="476"/>
      <point x="74" y="468" type="curve"/>
      <point x="74" y="465"/>
      <point x="74" y="458"/>
      <point x="85" y="458" type="curve"/>
      <point x="124" y="458" type="line" smooth="yes"/>
      <point x="127" y="458"/>
      <point x="134" y="459"/>
      <point x="134" y="444" type="curve"/>
      <point x="134" y="426"/>
      <point x="121" y="330"/>
      <point x="116" y="306" type="curve"/>
      <point x="116" y="281"/>
      <point x="110" y="253"/>
      <point x="110" y="246" type="curve"/>
      <point x="110" y="239"/>
      <point x="110" y="228"/>
      <point x="95" y="228" type="curve"/>
      <point x="82" y="228"/>
      <point x="68" y="228"/>
      <point x="61" y="231" type="curve"/>
      <point x="56" y="231"/>
      <point x="46" y="228"/>
      <point x="43" y="217" type="curve"/>
      <point x="39" y="204"/>
      <point x="35" y="200"/>
      <point x="32" y="192" type="curve"/>
      <point x="30" y="188"/>
      <point x="30" y="185"/>
      <point x="30" y="183" type="curve"/>
      <point x="30" y="180"/>
      <point x="32" y="179"/>
      <point x="39" y="179" type="curve"/>
      <point x="92" y="179" type="line" smooth="yes"/>
      <point x="95" y="179"/>
      <point x="104" y="179"/>
      <point x="104" y="174" type="curve"/>
      <point x="104" y="173"/>
      <point x="103" y="172"/>
      <point x="103" y="171" type="curve"/>
      <point x="103" y="166"/>
      <point x="98" y="78"/>
      <point x="95" y="62" type="curve"/>
      <point x="92" y="43"/>
      <point x="88" y="23"/>
      <point x="85" y="16" type="curve"/>
      <point x="85" y="14"/>
      <point x="83" y="9"/>
      <point x="83" y="5" type="curve"/>
      <point x="83" y="0"/>
      <point x="86" y="-5"/>
      <point x="99" y="-5" type="curve"/>
      <point x="116" y="-3"/>
      <point x="144" y="0"/>
      <point x="167" y="0" type="curve"/>
      <point x="176" y="0"/>
      <point x="185" y="-1"/>
      <point x="191" y="-2" type="curve"/>
      <point x="199" y="-3"/>
      <point x="206" y="-5"/>
      <point x="210" y="-5" type="curve"/>
      <point x="217" y="-5"/>
      <point x="220" y="-2"/>
      <point x="220" y="9" type="curve"/>
      <point x="220" y="27"/>
      <point x="230" y="106"/>
      <point x="233" y="122" type="curve"/>
      <point x="237" y="141"/>
      <point x="241" y="161"/>
      <point x="241" y="168" type="curve"/>
      <point x="241" y="174"/>
      <point x="245" y="183"/>
      <point x="254" y="183" type="curve"/>
      <point x="256" y="183"/>
      <point x="257" y="183"/>
      <point x="259" y="182" type="curve"/>
      <point x="271" y="182"/>
      <point x="325" y="179"/>
      <point x="350" y="179" type="curve"/>
      <point x="364" y="179"/>
      <point x="386" y="180"/>
      <point x="403" y="180" type="curve"/>
      <point x="411" y="180"/>
      <point x="419" y="180"/>
      <point x="424" y="179" type="curve"/>
      <point x="434" y="179"/>
      <point x="443" y="184"/>
      <point x="443" y="172" type="curve"/>
      <point x="443" y="170"/>
      <point x="442" y="168"/>
      <point x="442" y="165" type="curve"/>
      <point x="442" y="147"/>
      <point x="424" y="58"/>
      <point x="421" y="41" type="curve"/>
      <point x="419" y="29"/>
      <point x="413" y="17"/>
      <point x="413" y="9" type="curve"/>
      <point x="413" y="5"/>
      <point x="415" y="2"/>
      <point x="421" y="2" type="curve"/>
      <point x="425" y="1"/>
      <point x="429" y="0"/>
      <point x="433" y="0" type="curve"/>
      <point x="440" y="0"/>
      <point x="449" y="2"/>
      <point x="456" y="2" type="curve"/>
      <point x="463" y="-2"/>
      <point x="470" y="1"/>
      <point x="470" y="16" type="curve"/>
      <point x="473" y="27"/>
      <point x="492" y="126"/>
      <point x="495" y="143" type="curve"/>
      <point x="495" y="166"/>
      <point x="494" y="175"/>
      <point x="509" y="171" type="curve"/>
      <point x="520" y="171"/>
      <point x="559" y="175"/>
      <point x="569" y="175" type="curve"/>
      <point x="572" y="175"/>
      <point x="576" y="174"/>
      <point x="580" y="174" type="curve"/>
      <point x="584" y="174"/>
      <point x="589" y="176"/>
      <point x="591" y="182" type="curve"/>
      <point x="591" y="193"/>
      <point x="594" y="207"/>
      <point x="594" y="214" type="curve"/>
      <point x="598" y="217"/>
      <point x="595" y="228"/>
      <point x="580" y="228" type="curve"/>
      <point x="568" y="226"/>
      <point x="547" y="223"/>
      <point x="533" y="223" type="curve"/>
      <point x="527" y="223"/>
      <point x="522" y="223"/>
      <point x="520" y="225" type="curve"/>
      <point x="512" y="225"/>
      <point x="507" y="224"/>
      <point x="507" y="230" type="curve"/>
      <point x="507" y="232"/>
      <point x="508" y="235"/>
      <point x="509" y="239" type="curve"/>
      <point x="509" y="248"/>
      <point x="526" y="334"/>
      <point x="534" y="366" type="curve"/>
      <point x="537" y="393"/>
      <point x="544" y="438"/>
      <point x="548" y="447" type="curve"/>
      <point x="548" y="461"/>
      <point x="553" y="468"/>
      <point x="562" y="468" type="curve"/>
      <point x="612" y="468" type="line" smooth="yes"/>
      <point x="619" y="468"/>
      <point x="630" y="472"/>
      <point x="633" y="483" type="curve"/>
      <point x="637" y="494"/>
      <point x="637" y="504"/>
      <point x="640" y="507" type="curve"/>
      <point x="640" y="510"/>
      <point x="638" y="519"/>
      <point x="630" y="519" type="curve"/>
      <point x="629" y="519"/>
      <point x="628" y="519"/>
      <point x="626" y="518" type="curve"/>
      <point x="611" y="515"/>
      <point x="591" y="511"/>
      <point x="583" y="511" type="curve"/>
      <point x="578" y="511"/>
      <point x="573" y="510"/>
      <point x="569" y="510" type="curve"/>
      <point x="563" y="510"/>
      <point x="559" y="512"/>
      <point x="559" y="518" type="curve"/>
      <point x="559" y="529"/>
      <point x="572" y="592"/>
      <point x="577" y="621" type="curve"/>
      <point x="580" y="636"/>
      <point x="589" y="647"/>
      <point x="589" y="653" type="curve"/>
      <point x="589" y="656"/>
      <point x="586" y="658"/>
      <point x="580" y="659" type="curve"/>
      <point x="559" y="659"/>
      <point x="548" y="656"/>
      <point x="544" y="656" type="curve"/>
      <point x="537" y="659"/>
      <point x="530" y="657"/>
      <point x="527" y="638" type="curve"/>
      <point x="519" y="617"/>
      <point x="507" y="553"/>
    </contour>
    <contour>
      <point x="495" y="465" type="curve"/>
      <point x="495" y="460"/>
      <point x="493" y="453"/>
      <point x="492" y="444" type="curve"/>
      <point x="484" y="423"/>
      <point x="478" y="387"/>
      <point x="474" y="363" type="curve"/>
      <point x="466" y="342"/>
      <point x="463" y="267"/>
      <point x="460" y="249" type="curve"/>
      <point x="456" y="230"/>
      <point x="450" y="228"/>
      <point x="439" y="228" type="curve"/>
      <point x="428" y="228"/>
      <point x="400" y="228"/>
      <point x="379" y="231" type="curve"/>
      <point x="355" y="231"/>
      <point x="282" y="228"/>
      <point x="262" y="228" type="curve"/>
      <point x="249" y="230"/>
      <point x="247" y="236"/>
      <point x="247" y="241" type="curve"/>
      <point x="247" y="243"/>
      <point x="247" y="245"/>
      <point x="247" y="246" type="curve"/>
      <point x="247" y="249"/>
      <point x="251" y="270"/>
      <point x="254" y="285" type="curve"/>
      <point x="259" y="298"/>
      <point x="272" y="399"/>
      <point x="272" y="416" type="curve"/>
      <point x="276" y="433"/>
      <point x="280" y="454"/>
      <point x="283" y="465" type="curve"/>
      <point x="284" y="468"/>
      <point x="289" y="469"/>
      <point x="295" y="469" type="curve"/>
      <point x="304" y="469"/>
      <point x="316" y="467"/>
      <point x="322" y="465" type="curve"/>
      <point x="330" y="464"/>
      <point x="341" y="463"/>
      <point x="353" y="463" type="curve"/>
      <point x="365" y="463"/>
      <point x="377" y="464"/>
      <point x="385" y="465" type="curve"/>
      <point x="410" y="465"/>
      <point x="460" y="476"/>
      <point x="481" y="476" type="curve"/>
      <point x="492" y="476"/>
      <point x="495" y="472"/>
    </contour>
  </outline>
</glyph>
<glyph name="ampersand" format="1">
  <advance width="580"/>
  <unicode hex="0026"/>
  <outline>
    <contour>
      <point x="563" y="61" type="curve"/>
      <point x="563" y="69"/>
      <point x="559" y="78"/>
      <point x="553" y="83" type="curve"/>
      <point x="525" y="110" type="line"/>
      <point x="504" y="131" type="line"/>
      <point x="514" y="146"/>
      <point x="523" y="161"/>
      <point x="530" y="176" type="curve"/>
      <point x="543" y="201"/>
      <point x="556" y="231"/>
      <point x="556" y="254" type="curve"/>
      <point x="556" y="282"/>
      <point x="557" y="283"/>
      <point x="557" y="288" type="curve"/>
      <point x="557" y="290"/>
      <point x="557" y="293"/>
      <point x="556" y="301" type="curve"/>
      <point x="555" y="314"/>
      <point x="539" y="324"/>
      <point x="530" y="324" type="curve"/>
      <point x="521" y="324"/>
      <point x="517" y="323"/>
      <point x="508" y="320" type="curve"/>
      <point x="497" y="316"/>
      <point x="497" y="312"/>
      <point x="497" y="275" type="curve"/>
      <point x="497" y="260"/>
      <point x="496" y="242"/>
      <point x="490" y="223" type="curve"/>
      <point x="485" y="207"/>
      <point x="478" y="194"/>
      <point x="473" y="185" type="curve"/>
      <point x="463" y="170" type="line"/>
      <point x="415" y="223" type="line"/>
      <point x="388" y="250"/>
      <point x="359" y="280"/>
      <point x="346" y="289" type="curve"/>
      <point x="268" y="367" type="line"/>
      <point x="287" y="383"/>
      <point x="305" y="401"/>
      <point x="320" y="421" type="curve"/>
      <point x="347" y="456"/>
      <point x="373" y="503"/>
      <point x="373" y="560" type="curve"/>
      <point x="373" y="675"/>
      <point x="303" y="735"/>
      <point x="223" y="735" type="curve"/>
      <point x="195" y="735"/>
      <point x="66" y="734"/>
      <point x="66" y="577" type="curve"/>
      <point x="66" y="510"/>
      <point x="87" y="464"/>
      <point x="110" y="432" type="curve"/>
      <point x="123" y="413"/>
      <point x="137" y="398"/>
      <point x="154" y="385" type="curve"/>
      <point x="134" y="370"/>
      <point x="116" y="353"/>
      <point x="101" y="335" type="curve"/>
      <point x="74" y="304"/>
      <point x="49" y="262"/>
      <point x="49" y="219" type="curve"/>
      <point x="49" y="123"/>
      <point x="75" y="79"/>
      <point x="110" y="52" type="curve"/>
      <point x="137" y="25"/>
      <point x="197" y="0"/>
      <point x="268" y="0" type="curve"/>
      <point x="333" y="0"/>
      <point x="383" y="19"/>
      <point x="418" y="39" type="curve"/>
      <point x="438" y="51"/>
      <point x="455" y="64"/>
      <point x="469" y="79" type="curve"/>
      <point x="480" y="66" type="line" smooth="yes"/>
      <point x="487" y="59"/>
      <point x="492" y="51"/>
      <point x="497" y="47" type="curve"/>
      <point x="503" y="41"/>
      <point x="513" y="25"/>
      <point x="524" y="25" type="curve"/>
      <point x="528" y="25"/>
      <point x="532" y="27"/>
      <point x="536" y="32" type="curve"/>
      <point x="553" y="41"/>
      <point x="550" y="45"/>
      <point x="557" y="49" type="curve"/>
      <point x="561" y="52"/>
      <point x="563" y="56"/>
    </contour>
    <contour>
      <point x="163" y="464" type="curve"/>
      <point x="128" y="507"/>
      <point x="128" y="542"/>
      <point x="128" y="595" type="curve"/>
      <point x="128" y="656"/>
      <point x="189" y="682"/>
      <point x="224" y="682" type="curve"/>
      <point x="285" y="682"/>
      <point x="320" y="631"/>
      <point x="320" y="560" type="curve"/>
      <point x="320" y="490"/>
      <point x="233" y="420"/>
      <point x="215" y="420" type="curve"/>
      <point x="199" y="420"/>
      <point x="198" y="429"/>
    </contour>
    <contour>
      <point x="419" y="113" type="curve"/>
      <point x="419" y="110"/>
      <point x="418" y="107"/>
      <point x="416" y="104" type="curve"/>
      <point x="408" y="94"/>
      <point x="400" y="52"/>
      <point x="259" y="52" type="curve"/>
      <point x="170" y="52"/>
      <point x="133" y="91"/>
      <point x="114" y="131" type="curve"/>
      <point x="103" y="154"/>
      <point x="99" y="180"/>
      <point x="101" y="210" type="curve"/>
      <point x="101" y="280"/>
      <point x="189" y="341"/>
      <point x="198" y="341" type="curve"/>
      <point x="216" y="341"/>
      <point x="249" y="297"/>
      <point x="268" y="280" type="curve"/>
      <point x="284" y="253"/>
      <point x="373" y="166"/>
      <point x="399" y="140" type="curve"/>
      <point x="413" y="126"/>
      <point x="419" y="119"/>
    </contour>
  </outline>
</glyph>
<glyph name="asterisk" format="1">
  <advance width="518"/>
  <unicode hex="002A"/>
  <outline>
    <contour>
      <point x="278" y="655" type="curve"/>
      <point x="270" y="639"/>
      <point x="266" y="615"/>
      <point x="255" y="615" type="curve"/>
      <point x="243" y="636" type="line" smooth="yes"/>
      <point x="236" y="648"/>
      <point x="229" y="663"/>
      <point x="222" y="676" type="curve"/>
      <point x="210" y="696"/>
      <point x="198" y="724"/>
      <point x="190" y="732" type="curve"/>
      <point x="185" y="740"/>
      <point x="181" y="744"/>
      <point x="177" y="744" type="curve"/>
      <point x="175" y="744"/>
      <point x="173" y="743"/>
      <point x="170" y="740" type="curve"/>
      <point x="125" y="712" type="line"/>
      <point x="109" y="704"/>
      <point x="89" y="696"/>
      <point x="98" y="680" type="curve"/>
      <point x="102" y="664"/>
      <point x="109" y="651"/>
      <point x="121" y="632" type="curve"/>
      <point x="134" y="615"/>
      <point x="142" y="599"/>
      <point x="146" y="583" type="curve"/>
      <point x="150" y="577"/>
      <point x="154" y="573"/>
      <point x="154" y="571" type="curve"/>
      <point x="154" y="568"/>
      <point x="150" y="567"/>
      <point x="138" y="567" type="curve"/>
      <point x="61" y="567" type="line" smooth="yes"/>
      <point x="45" y="567"/>
      <point x="25" y="571"/>
      <point x="25" y="551" type="curve"/>
      <point x="25" y="530"/>
      <point x="29" y="503"/>
      <point x="29" y="490" type="curve"/>
      <point x="29" y="474"/>
      <point x="29" y="454"/>
      <point x="45" y="454" type="curve"/>
      <point x="65" y="454"/>
      <point x="109" y="462"/>
      <point x="125" y="462" type="curve"/>
      <point x="129" y="461"/>
      <point x="133" y="460"/>
      <point x="138" y="460" type="curve"/>
      <point x="147" y="460"/>
      <point x="156" y="462"/>
      <point x="163" y="462" type="curve"/>
      <point x="184" y="462"/>
      <point x="149" y="424"/>
      <point x="134" y="394" type="curve"/>
      <point x="121" y="373"/>
      <point x="113" y="366"/>
      <point x="109" y="358" type="curve"/>
      <point x="107" y="351"/>
      <point x="104" y="347"/>
      <point x="104" y="342" type="curve"/>
      <point x="104" y="338"/>
      <point x="106" y="335"/>
      <point x="113" y="329" type="curve"/>
      <point x="129" y="321"/>
      <point x="157" y="314"/>
      <point x="174" y="305" type="curve"/>
      <point x="179" y="301"/>
      <point x="185" y="300"/>
      <point x="191" y="300" type="curve"/>
      <point x="199" y="300"/>
      <point x="206" y="303"/>
      <point x="210" y="310" type="curve"/>
      <point x="218" y="321"/>
      <point x="239" y="361"/>
      <point x="247" y="377" type="curve"/>
      <point x="255" y="390"/>
      <point x="255" y="406"/>
      <point x="262" y="406" type="curve"/>
      <point x="270" y="406"/>
      <point x="278" y="390"/>
      <point x="287" y="369" type="curve"/>
      <point x="299" y="354"/>
      <point x="311" y="333"/>
      <point x="318" y="317" type="curve"/>
      <point x="325" y="307"/>
      <point x="329" y="295"/>
      <point x="339" y="295" type="curve"/>
      <point x="341" y="295"/>
      <point x="344" y="296"/>
      <point x="347" y="297" type="curve"/>
      <point x="364" y="305"/>
      <point x="391" y="321"/>
      <point x="404" y="329" type="curve"/>
      <point x="410" y="332"/>
      <point x="418" y="338"/>
      <point x="418" y="346" type="curve"/>
      <point x="418" y="348"/>
      <point x="418" y="351"/>
      <point x="416" y="354" type="curve"/>
      <point x="403" y="370"/>
      <point x="372" y="425"/>
      <point x="364" y="438" type="curve"/>
      <point x="356" y="448"/>
      <point x="348" y="457"/>
      <point x="348" y="463" type="curve"/>
      <point x="348" y="467"/>
      <point x="351" y="469"/>
      <point x="359" y="471" type="curve"/>
      <point x="378" y="471"/>
      <point x="440" y="474"/>
      <point x="460" y="474" type="curve"/>
      <point x="465" y="473"/>
      <point x="469" y="473"/>
      <point x="472" y="473" type="curve"/>
      <point x="485" y="473"/>
      <point x="492" y="477"/>
      <point x="492" y="486" type="curve"/>
      <point x="492" y="551" type="line"/>
      <point x="493" y="553"/>
      <point x="494" y="556"/>
      <point x="494" y="559" type="curve"/>
      <point x="494" y="565"/>
      <point x="490" y="571"/>
      <point x="475" y="571" type="curve"/>
      <point x="391" y="571" type="line"/>
      <point x="364" y="567"/>
      <point x="343" y="571"/>
      <point x="355" y="583" type="curve"/>
      <point x="364" y="594"/>
      <point x="396" y="652"/>
      <point x="404" y="672" type="curve"/>
      <point x="408" y="681"/>
      <point x="416" y="691"/>
      <point x="416" y="699" type="curve"/>
      <point x="416" y="705"/>
      <point x="413" y="709"/>
      <point x="404" y="712" type="curve"/>
      <point x="383" y="720"/>
      <point x="359" y="732"/>
      <point x="351" y="740" type="curve"/>
      <point x="347" y="742"/>
      <point x="342" y="745"/>
      <point x="337" y="745" type="curve"/>
      <point x="332" y="745"/>
      <point x="327" y="742"/>
      <point x="322" y="732" type="curve"/>
      <point x="314" y="717"/>
      <point x="281" y="668"/>
    </contour>
  </outline>
</glyph>
<glyph name="four" format="1">
  <advance width="500"/>
  <unicode hex="0034"/>
  <outline>
    <contour>
      <point x="376" y="723" type="curve"/>
      <point x="374" y="722"/>
      <point x="371" y="721"/>
      <point x="367" y="721" type="curve"/>
      <point x="360" y="721" type="line" smooth="yes"/>
      <point x="352" y="721"/>
      <point x="344" y="719"/>
      <point x="333" y="704" type="curve"/>
      <point x="324" y="692"/>
      <point x="296" y="648"/>
      <point x="223" y="544" type="curve"/>
      <point x="117" y="401"/>
      <point x="125" y="423"/>
      <point x="88" y="367" type="curve"/>
      <point x="34" y="286"/>
      <point x="29" y="302"/>
      <point x="29" y="264" type="curve"/>
      <point x="29" y="252"/>
      <point x="30" y="239"/>
      <point x="52" y="239" type="curve"/>
      <point x="71" y="239"/>
      <point x="130" y="243"/>
      <point x="170" y="243" type="curve"/>
      <point x="190" y="243"/>
      <point x="197" y="241"/>
      <point x="216" y="241" type="curve"/>
      <point x="256" y="241"/>
      <point x="311" y="246"/>
      <point x="323" y="246" type="curve"/>
      <point x="336" y="246"/>
      <point x="345" y="242"/>
      <point x="345" y="219" type="curve"/>
      <point x="345" y="117"/>
      <point x="343" y="151"/>
      <point x="340" y="90" type="curve"/>
      <point x="340" y="42" type="line" smooth="yes"/>
      <point x="340" y="9"/>
      <point x="341" y="6"/>
      <point x="352" y="6" type="curve"/>
      <point x="367" y="6"/>
      <point x="397" y="1"/>
      <point x="397" y="25" type="curve"/>
      <point x="397" y="35" type="line" smooth="yes"/>
      <point x="397" y="47"/>
      <point x="399" y="231"/>
      <point x="401" y="231" type="curve"/>
      <point x="401" y="225"/>
      <point x="402" y="216"/>
      <point x="402" y="216" type="curve"/>
      <point x="402" y="216"/>
      <point x="402" y="217"/>
      <point x="402" y="221" type="curve"/>
      <point x="402" y="235"/>
      <point x="403" y="246"/>
      <point x="420" y="246" type="curve"/>
      <point x="435" y="246"/>
      <point x="448" y="248"/>
      <point x="455" y="248" type="curve"/>
      <point x="460" y="248" type="line" smooth="yes"/>
      <point x="464" y="248"/>
      <point x="470" y="251"/>
      <point x="470" y="259" type="curve"/>
      <point x="470" y="260"/>
      <point x="469" y="261"/>
      <point x="469" y="264" type="curve"/>
      <point x="466" y="277"/>
      <point x="471" y="298"/>
      <point x="460" y="298" type="curve"/>
      <point x="444" y="298"/>
      <point x="422" y="295"/>
      <point x="417" y="295" type="curve"/>
      <point x="408" y="295"/>
      <point x="403" y="299"/>
      <point x="403" y="330" type="curve"/>
      <point x="403" y="605"/>
      <point x="410" y="639"/>
      <point x="410" y="695" type="curve"/>
      <point x="410" y="726"/>
      <point x="403" y="718"/>
    </contour>
    <contour>
      <point x="348" y="624" type="curve"/>
      <point x="348" y="628"/>
      <point x="346" y="521"/>
      <point x="346" y="500" type="curve"/>
      <point x="344" y="450" type="line" smooth="yes"/>
      <point x="344" y="433"/>
      <point x="344" y="418"/>
      <point x="344" y="405" type="curve"/>
      <point x="344" y="310"/>
      <point x="343" y="291"/>
      <point x="318" y="291" type="curve"/>
      <point x="266" y="291" type="line" smooth="yes"/>
      <point x="207" y="291"/>
      <point x="171" y="288"/>
      <point x="160" y="288" type="curve"/>
      <point x="143" y="288"/>
      <point x="122" y="290"/>
      <point x="109" y="290" type="curve"/>
      <point x="94" y="290"/>
      <point x="90" y="286"/>
      <point x="85" y="286" type="curve"/>
      <point x="82" y="286"/>
      <point x="80" y="288"/>
      <point x="80" y="293" type="curve"/>
      <point x="80" y="319"/>
      <point x="104" y="315"/>
      <point x="144" y="377" type="curve"/>
      <point x="160" y="398"/>
      <point x="173" y="409"/>
      <point x="227" y="484" type="curve"/>
      <point x="293" y="576" type="line"/>
      <point x="336" y="645"/>
      <point x="347" y="664"/>
      <point x="350" y="664" type="curve"/>
      <point x="350" y="663" type="line"/>
      <point x="350" y="662"/>
      <point x="351" y="662"/>
      <point x="351" y="661" type="curve"/>
      <point x="351" y="648"/>
      <point x="348" y="637"/>
    </contour>
  </outline>
</glyph>
<glyph name="six" format="1">
  <advance width="500"/>
  <unicode hex="0036"/>
  <outline>
    <contour>
      <point x="483" y="222" type="curve"/>
      <point x="483" y="329"/>
      <point x="384" y="382"/>
      <point x="303" y="382" type="curve"/>
      <point x="260" y="382"/>
      <point x="231" y="368"/>
      <point x="211" y="355" type="curve"/>
      <point x="200" y="348"/>
      <point x="190" y="339"/>
      <point x="183" y="329" type="curve"/>
      <point x="183" y="356"/>
      <point x="185" y="380"/>
      <point x="188" y="402" type="curve"/>
      <point x="193" y="439"/>
      <point x="208" y="476"/>
      <point x="236" y="476" type="curve"/>
      <point x="290" y="476"/>
      <point x="290" y="446"/>
      <point x="296" y="438" type="curve"/>
      <point x="296" y="431"/>
      <point x="300" y="421"/>
      <point x="310" y="421" type="curve"/>
      <point x="314" y="421"/>
      <point x="319" y="422"/>
      <point x="324" y="425" type="curve"/>
      <point x="343" y="439"/>
      <point x="411" y="489"/>
      <point x="427" y="497" type="curve"/>
      <point x="439" y="502"/>
      <point x="453" y="512"/>
      <point x="453" y="527" type="curve"/>
      <point x="453" y="531"/>
      <point x="451" y="536"/>
      <point x="449" y="541" type="curve"/>
      <point x="439" y="564"/>
      <point x="379" y="701"/>
      <point x="247" y="701" type="curve"/>
      <point x="175" y="701"/>
      <point x="16" y="613"/>
      <point x="16" y="337" type="curve"/>
      <point x="16" y="61"/>
      <point x="164" y="-33"/>
      <point x="240" y="-33" type="curve"/>
      <point x="317" y="-33"/>
      <point x="483" y="-29"/>
    </contour>
    <contour>
      <point x="303" y="226" type="curve"/>
      <point x="303" y="192"/>
      <point x="288" y="137"/>
      <point x="252" y="137" type="curve"/>
      <point x="214" y="137"/>
      <point x="195" y="177"/>
      <point x="195" y="210" type="curve"/>
      <point x="195" y="245"/>
      <point x="222" y="276"/>
      <point x="253" y="276" type="curve"/>
      <point x="267" y="276"/>
      <point x="303" y="259"/>
    </contour>
  </outline>
</glyph>
<glyph name="colon" format="1">
  <advance width="244"/>
  <unicode hex="003A"/>
  <outline>
    <contour>
      <point x="40" y="399" type="curve"/>
      <point x="40" y="364"/>
      <point x="70" y="313"/>
      <point x="122" y="313" type="curve"/>
      <point x="175" y="313"/>
      <point x="195" y="360"/>
      <point x="195" y="399" type="curve"/>
      <point x="195" y="443"/>
      <point x="159" y="475"/>
      <point x="119" y="475" type="curve"/>
      <point x="71" y="475"/>
      <point x="40" y="435"/>
    </contour>
    <contour>
      <point x="206" y="48" type="curve"/>
      <point x="206" y="83"/>
      <point x="202" y="147"/>
      <point x="122" y="147" type="curve"/>
      <point x="90" y="147"/>
      <point x="48" y="133"/>
      <point x="48" y="72" type="curve"/>
      <point x="48" y="12"/>
      <point x="87" y="-15"/>
      <point x="127" y="-15" type="curve"/>
      <point x="166" y="-15"/>
      <point x="206" y="12"/>
    </contour>
  </outline>
</glyph>
<glyph name="D" format="1">
  <advance width="577"/>
  <unicode hex="0044"/>
  <outline>
    <contour>
      <point x="239" y="700" type="curve"/>
      <point x="216" y="700"/>
      <point x="192" y="699"/>
      <point x="171" y="698" type="curve"/>
      <point x="135" y="696" type="line"/>
      <point x="111" y="696"/>
      <point x="68" y="701"/>
      <point x="68" y="681" type="curve"/>
      <point x="68" y="660"/>
      <point x="70" y="592"/>
      <point x="70" y="511" type="curve"/>
      <point x="70" y="431"/>
      <point x="62" y="381"/>
      <point x="62" y="303" type="curve"/>
      <point x="62" y="224"/>
      <point x="67" y="175"/>
      <point x="67" y="155" type="curve"/>
      <point x="67" y="134"/>
      <point x="70" y="84"/>
      <point x="70" y="60" type="curve"/>
      <point x="70" y="52"/>
      <point x="69" y="43"/>
      <point x="69" y="34" type="curve"/>
      <point x="69" y="16"/>
      <point x="72" y="0"/>
      <point x="88" y="0" type="curve"/>
      <point x="113" y="0"/>
      <point x="185" y="2"/>
      <point x="224" y="2" type="curve"/>
      <point x="262" y="2"/>
      <point x="542" y="14"/>
      <point x="542" y="315" type="curve"/>
      <point x="542" y="639"/>
      <point x="332" y="700"/>
    </contour>
    <contour>
      <point x="291" y="250" type="curve"/>
      <point x="276" y="235"/>
      <point x="260" y="223"/>
      <point x="241" y="214" type="curve"/>
      <point x="241" y="231"/>
      <point x="241" y="249"/>
      <point x="242" y="266" type="curve"/>
      <point x="243" y="295"/>
      <point x="244" y="327"/>
      <point x="244" y="350" type="curve"/>
      <point x="244" y="382"/>
      <point x="248" y="420"/>
      <point x="248" y="455" type="curve"/>
      <point x="248" y="467"/>
      <point x="247" y="478"/>
      <point x="246" y="489" type="curve"/>
      <point x="263" y="484"/>
      <point x="279" y="476"/>
      <point x="293" y="465" type="curve"/>
      <point x="317" y="446"/>
      <point x="341" y="415"/>
      <point x="341" y="364" type="curve"/>
      <point x="341" y="312"/>
      <point x="316" y="274"/>
    </contour>
    <contour>
      <point x="283" y="0" type="move" name="bottom"/>
    </contour>
    <contour>
      <point x="274" y="710" type="move" name="top"/>
    </contour>
  </outline>
</glyph>
<glyph name="G" format="1">
  <advance width="592"/>
  <unicode hex="0047"/>
  <outline>
    <contour>
      <point x="307" y="299" type="curve"/>
      <point x="318" y="298"/>
      <point x="330" y="296"/>
      <point x="342" y="294" type="curve"/>
      <point x="362" y="290" type="line"/>
      <point x="362" y="271"/>
      <point x="360" y="255"/>
      <point x="355" y="240" type="curve"/>
      <point x="347" y="215"/>
      <point x="331" y="190"/>
      <point x="299" y="190" type="curve"/>
      <point x="232" y="190"/>
      <point x="236" y="286"/>
      <point x="236" y="342" type="curve"/>
      <point x="236" y="400"/>
      <point x="256" y="486"/>
      <point x="300" y="486" type="curve"/>
      <point x="325" y="486"/>
      <point x="335" y="461"/>
      <point x="342" y="452" type="curve"/>
      <point x="348" y="445"/>
      <point x="349" y="434"/>
      <point x="357" y="434" type="curve"/>
      <point x="360" y="434"/>
      <point x="362" y="435"/>
      <point x="365" y="436" type="curve"/>
      <point x="368" y="436"/>
      <point x="370" y="437"/>
      <point x="373" y="439" type="curve"/>
      <point x="378" y="442"/>
      <point x="384" y="445"/>
      <point x="392" y="452" type="curve"/>
      <point x="409" y="463"/>
      <point x="428" y="477"/>
      <point x="447" y="488" type="curve"/>
      <point x="467" y="497"/>
      <point x="503" y="517"/>
      <point x="519" y="525" type="curve"/>
      <point x="532" y="532"/>
      <point x="537" y="532"/>
      <point x="537" y="538" type="curve"/>
      <point x="537" y="539"/>
      <point x="537" y="541"/>
      <point x="536" y="543" type="curve"/>
      <point x="532" y="552"/>
      <point x="526" y="572"/>
      <point x="521" y="583" type="curve"/>
      <point x="516" y="593"/>
      <point x="460" y="719"/>
      <point x="311" y="719" type="curve"/>
      <point x="239" y="719"/>
      <point x="41" y="685"/>
      <point x="41" y="338" type="curve"/>
      <point x="41" y="37"/>
      <point x="253" y="-14"/>
      <point x="316" y="-14" type="curve"/>
      <point x="401" y="-14"/>
      <point x="541" y="42"/>
      <point x="557" y="311" type="curve"/>
      <point x="558" y="317"/>
      <point x="557" y="323"/>
      <point x="556" y="328" type="curve"/>
      <point x="553" y="337"/>
      <point x="548" y="345"/>
      <point x="533" y="346" type="curve"/>
      <point x="502" y="347"/>
      <point x="446" y="358"/>
      <point x="403" y="363" type="curve"/>
      <point x="363" y="367"/>
      <point x="330" y="372"/>
      <point x="321" y="373" type="curve"/>
      <point x="310" y="374"/>
      <point x="303" y="376"/>
      <point x="296" y="352" type="curve"/>
      <point x="291" y="332"/>
      <point x="288" y="322"/>
      <point x="288" y="313" type="curve"/>
      <point x="288" y="307"/>
      <point x="290" y="301"/>
    </contour>
    <contour>
      <point x="317" y="0" type="move" name="bottom"/>
    </contour>
    <contour>
      <point x="324" y="710" type="move" name="top"/>
    </contour>
  </outline>
</glyph>
<glyph name="T" format="1">
  <advance width="529"/>
  <unicode hex="0054"/>
  <outline>
    <contour>
      <point x="265" y="703" type="curve"/>
      <point x="228" y="703"/>
      <point x="164" y="700"/>
      <point x="136" y="700" type="curve"/>
      <point x="37" y="700" type="line" smooth="yes"/>
      <point x="29" y="700"/>
      <point x="19" y="701"/>
      <point x="19" y="685" type="curve"/>
      <point x="19" y="683"/>
      <point x="19" y="680"/>
      <point x="19" y="678" type="curve"/>
      <point x="20" y="673"/>
      <point x="20" y="663"/>
      <point x="20" y="649" type="curve"/>
      <point x="20" y="604"/>
      <point x="17" y="526"/>
      <point x="17" y="517" type="curve"/>
      <point x="14" y="506"/>
      <point x="18" y="494"/>
      <point x="37" y="494" type="curve"/>
      <point x="50" y="494"/>
      <point x="145" y="497"/>
      <point x="214" y="497" type="curve"/>
      <point x="214" y="470"/>
      <point x="217" y="407"/>
      <point x="217" y="366" type="curve"/>
      <point x="217" y="314"/>
      <point x="207" y="62"/>
      <point x="207" y="34" type="curve"/>
      <point x="207" y="6"/>
      <point x="204" y="0"/>
      <point x="223" y="0" type="curve"/>
      <point x="291" y="0" type="line" smooth="yes"/>
      <point x="301" y="0"/>
      <point x="306" y="-2"/>
      <point x="306" y="13" type="curve"/>
      <point x="306" y="15"/>
      <point x="306" y="16"/>
      <point x="306" y="18" type="curve"/>
      <point x="306" y="33"/>
      <point x="303" y="198"/>
      <point x="303" y="309" type="curve"/>
      <point x="303" y="346"/>
      <point x="303" y="377"/>
      <point x="304" y="394" type="curve"/>
      <point x="306" y="497" type="line"/>
      <point x="482" y="497" type="line" smooth="yes"/>
      <point x="505" y="497"/>
      <point x="517" y="506"/>
      <point x="517" y="524" type="curve"/>
      <point x="516" y="540"/>
      <point x="514" y="571"/>
      <point x="514" y="600" type="curve"/>
      <point x="514" y="642"/>
      <point x="516" y="666"/>
      <point x="517" y="676" type="curve"/>
      <point x="518" y="684"/>
      <point x="513" y="702"/>
      <point x="477" y="701" type="curve"/>
      <point x="468" y="700"/>
      <point x="455" y="700"/>
      <point x="438" y="700" type="curve"/>
      <point x="382" y="700"/>
      <point x="293" y="703"/>
    </contour>
    <contour>
      <point x="259" y="0" type="move" name="bottom"/>
    </contour>
    <contour>
      <point x="261" y="710" type="move" name="top"/>
    </contour>
  </outline>
</glyph>
<glyph name="U" format="1">
  <advance width="488"/>
  <unicode hex="0055"/>
  <outline>
    <contour>
      <point x="106" y="288" type="curve"/>
      <point x="106" y="435"/>
      <point x="109" y="763"/>
      <point x="109" y="691" type="curve"/>
      <point x="109" y="698"/>
      <point x="108" y="702"/>
      <point x="104" y="702" type="curve"/>
      <point x="97" y="702"/>
      <point x="92" y="700"/>
      <point x="86" y="700" type="curve"/>
      <point x="82" y="700"/>
      <point x="79" y="701"/>
      <point x="75" y="701" type="curve"/>
      <point x="68" y="704"/>
      <point x="56" y="706"/>
      <point x="56" y="678" type="curve"/>
      <point x="56" y="673"/>
      <point x="56" y="668"/>
      <point x="57" y="662" type="curve"/>
      <point x="59" y="634"/>
      <point x="61" y="549"/>
      <point x="61" y="480" type="curve"/>
      <point x="61" y="437"/>
      <point x="61" y="401"/>
      <point x="59" y="387" type="curve"/>
      <point x="57" y="374"/>
      <point x="56" y="345"/>
      <point x="56" y="311" type="curve"/>
      <point x="56" y="250"/>
      <point x="60" y="173"/>
      <point x="70" y="140" type="curve"/>
      <point x="86" y="88"/>
      <point x="132" y="3"/>
      <point x="228" y="3" type="curve"/>
      <point x="325" y="3"/>
      <point x="430" y="60"/>
      <point x="433" y="247" type="curve"/>
      <point x="436" y="436"/>
      <point x="424" y="558"/>
      <point x="427" y="593" type="curve"/>
      <point x="428" y="603"/>
      <point x="428" y="614"/>
      <point x="428" y="625" type="curve"/>
      <point x="428" y="647"/>
      <point x="427" y="668"/>
      <point x="426" y="679" type="curve"/>
      <point x="425" y="695"/>
      <point x="427" y="703"/>
      <point x="404" y="703" type="curve"/>
      <point x="381" y="703"/>
      <point x="344" y="702"/>
      <point x="333" y="703" type="curve"/>
      <point x="324" y="703"/>
      <point x="305" y="708"/>
      <point x="305" y="683" type="curve"/>
      <point x="305" y="678"/>
      <point x="306" y="672"/>
      <point x="308" y="664" type="curve"/>
      <point x="311" y="649"/>
      <point x="312" y="625"/>
      <point x="312" y="595" type="curve"/>
      <point x="312" y="531"/>
      <point x="307" y="444"/>
      <point x="307" y="392" type="curve"/>
      <point x="307" y="317"/>
      <point x="302" y="190"/>
      <point x="302" y="165" type="curve"/>
      <point x="302" y="138"/>
      <point x="286" y="86"/>
      <point x="219" y="86" type="curve"/>
      <point x="154" y="86"/>
      <point x="106" y="171"/>
    </contour>
    <contour>
      <point x="246" y="0" type="move" name="bottom"/>
    </contour>
    <contour>
      <point x="246" y="710" type="move" name="top"/>
    </contour>
  </outline>
</glyph>
<glyph name="asciicircum" format="1">
  <advance width="364"/>
  <unicode hex="005E"/>
  <outline>
    <contour>
      <point x="337" y="210" type="curve"/>
      <point x="340" y="250"/>
      <point x="311" y="296"/>
      <point x="302" y="313" type="curve"/>
      <point x="267" y="378" type="line" smooth="yes"/>
      <point x="258" y="395"/>
      <point x="246" y="417"/>
      <point x="233" y="445" type="curve"/>
      <point x="215" y="473"/>
      <point x="208" y="489"/>
      <point x="193" y="489" type="curve"/>
      <point x="190" y="489"/>
      <point x="187" y="488"/>
      <point x="183" y="487" type="curve"/>
      <point x="176" y="487"/>
      <point x="170" y="483"/>
      <point x="163" y="476" type="curve"/>
      <point x="152" y="460"/>
      <point x="134" y="434"/>
      <point x="110" y="395" type="curve"/>
      <point x="79" y="329"/>
      <point x="71" y="329"/>
      <point x="60" y="307" type="curve"/>
      <point x="52" y="289"/>
      <point x="21" y="237"/>
      <point x="21" y="221" type="curve"/>
      <point x="21" y="178"/>
      <point x="37" y="170"/>
      <point x="50" y="170" type="curve"/>
      <point x="54" y="169"/>
      <point x="58" y="168"/>
      <point x="62" y="168" type="curve"/>
      <point x="82" y="168"/>
      <point x="103" y="184"/>
      <point x="120" y="212" type="curve"/>
      <point x="133" y="240"/>
      <point x="145" y="260"/>
      <point x="153" y="280" type="curve"/>
      <point x="158" y="291"/>
      <point x="172" y="316"/>
      <point x="196" y="355" type="curve"/>
      <point x="215" y="327"/>
      <point x="227" y="299"/>
      <point x="243" y="256" type="curve"/>
      <point x="249" y="243"/>
      <point x="255" y="232"/>
      <point x="261" y="223" type="curve"/>
      <point x="272" y="206"/>
      <point x="285" y="190"/>
      <point x="293" y="185" type="curve"/>
      <point x="305" y="171"/>
      <point x="316" y="163"/>
      <point x="323" y="163" type="curve"/>
      <point x="329" y="163"/>
      <point x="334" y="179"/>
    </contour>
  </outline>
</glyph>
<glyph name="h" format="1">
  <advance width="543"/>
  <unicode hex="0068"/>
  <outline>
    <contour>
      <point x="487" y="22" type="curve"/>
      <point x="487" y="36"/>
      <point x="486" y="89"/>
      <point x="486" y="112" type="curve"/>
      <point x="487" y="135"/>
      <point x="487" y="268"/>
      <point x="487" y="303" type="curve"/>
      <point x="487" y="564"/>
      <point x="440" y="621"/>
      <point x="321" y="621" type="curve"/>
      <point x="235" y="621"/>
      <point x="209" y="597"/>
      <point x="178" y="585" type="curve"/>
      <point x="179" y="647"/>
      <point x="179" y="702"/>
      <point x="179" y="706" type="curve"/>
      <point x="179" y="723"/>
      <point x="175" y="751"/>
      <point x="156" y="747" type="curve"/>
      <point x="137" y="744"/>
      <point x="114" y="744"/>
      <point x="86" y="746" type="curve"/>
      <point x="69" y="748"/>
      <point x="64" y="730"/>
      <point x="64" y="697" type="curve"/>
      <point x="64" y="689"/>
      <point x="61" y="452"/>
      <point x="57" y="393" type="curve"/>
      <point x="54" y="335"/>
      <point x="53" y="317"/>
      <point x="55" y="270" type="curve"/>
      <point x="56" y="224"/>
      <point x="54" y="50"/>
      <point x="54" y="30" type="curve"/>
      <point x="54" y="8"/>
      <point x="66" y="1"/>
      <point x="83" y="1" type="curve"/>
      <point x="96" y="1"/>
      <point x="121" y="1"/>
      <point x="155" y="0" type="curve"/>
      <point x="179" y="0"/>
      <point x="177" y="23"/>
      <point x="177" y="42" type="curve"/>
      <point x="177" y="99"/>
      <point x="168" y="216"/>
      <point x="178" y="485" type="curve"/>
      <point x="201" y="506"/>
      <point x="234" y="523"/>
      <point x="283" y="523" type="curve"/>
      <point x="363" y="523"/>
      <point x="374" y="469"/>
      <point x="374" y="344" type="curve"/>
      <point x="374" y="248"/>
      <point x="368" y="122"/>
      <point x="370" y="109" type="curve"/>
      <point x="374" y="89"/>
      <point x="370" y="41"/>
      <point x="370" y="27" type="curve"/>
      <point x="370" y="14"/>
      <point x="369" y="0"/>
      <point x="383" y="0" type="curve"/>
      <point x="397" y="0"/>
      <point x="470" y="0"/>
      <point x="476" y="0" type="curve"/>
      <point x="482" y="0"/>
      <point x="487" y="8"/>
    </contour>
    <contour>
      <point x="275" y="0" type="move" name="bottom"/>
    </contour>
    <contour>
      <point x="131" y="726" type="move" name="top"/>
    </contour>
  </outline>
</glyph>
<glyph name="o" format="1">
  <advance width="506"/>
  <unicode hex="006F"/>
  <outline>
    <contour>
      <point x="466" y="285" type="curve"/>
      <point x="466" y="408"/>
      <point x="454" y="598"/>
      <point x="254" y="598" type="curve"/>
      <point x="172" y="598"/>
      <point x="40" y="540"/>
      <point x="40" y="297" type="curve"/>
      <point x="40" y="206"/>
      <point x="56" y="-22"/>
      <point x="260" y="-22" type="curve"/>
      <point x="406" y="-22"/>
      <point x="466" y="163"/>
    </contour>
    <contour>
      <point x="317" y="278" type="curve"/>
      <point x="317" y="226"/>
      <point x="300" y="172"/>
      <point x="253" y="172" type="curve"/>
      <point x="201" y="172"/>
      <point x="197" y="229"/>
      <point x="197" y="270" type="curve"/>
      <point x="197" y="339"/>
      <point x="214" y="382"/>
      <point x="259" y="382" type="curve"/>
      <point x="295" y="382"/>
      <point x="317" y="357"/>
    </contour>
    <contour>
      <point x="322" y="0" type="move" name="bottom"/>
    </contour>
    <contour>
      <point x="261" y="602" type="move" name="top"/>
    </contour>
  </outline>
</glyph>
<glyph name="t" format="1">
  <advance width="272"/>
  <unicode hex="0074"/>
  <outline>
    <contour>
      <point x="73" y="582" type="curve"/>
      <point x="55" y="582"/>
      <point x="36" y="582"/>
      <point x="18" y="583" type="curve"/>
      <point x="18" y="568"/>
      <point x="11" y="545"/>
      <point x="18" y="530" type="curve"/>
      <point x="24" y="516"/>
      <point x="50" y="514"/>
      <point x="73" y="514" type="curve"/>
      <point x="73" y="368" type="line" smooth="yes"/>
      <point x="73" y="346"/>
      <point x="67" y="229"/>
      <point x="65" y="162" type="curve"/>
      <point x="65" y="58"/>
      <point x="49" y="-7"/>
      <point x="163" y="-4" type="curve"/>
      <point x="198" y="-3"/>
      <point x="210" y="-1"/>
      <point x="250" y="14" type="curve"/>
      <point x="254" y="15"/>
      <point x="251" y="22"/>
      <point x="251" y="22" type="curve"/>
      <point x="247" y="38" type="line" smooth="yes"/>
      <point x="247" y="46"/>
      <point x="247" y="77"/>
      <point x="236" y="77" type="curve"/>
      <point x="223" y="77"/>
      <point x="211" y="74"/>
      <point x="175" y="74" type="curve"/>
      <point x="146" y="74"/>
      <point x="124" y="93"/>
      <point x="124" y="137" type="curve"/>
      <point x="124" y="157" type="line" smooth="yes"/>
      <point x="124" y="194"/>
      <point x="128" y="261"/>
      <point x="128" y="278" type="curve"/>
      <point x="128" y="484" type="line"/>
      <point x="128" y="515" type="line"/>
      <point x="162" y="512"/>
      <point x="206" y="508"/>
      <point x="234" y="517" type="curve"/>
      <point x="250" y="522"/>
      <point x="242" y="582"/>
      <point x="225" y="582" type="curve"/>
      <point x="129" y="582" type="line"/>
      <point x="131" y="624"/>
      <point x="134" y="651"/>
      <point x="136" y="666" type="curve"/>
      <point x="137" y="676"/>
      <point x="138" y="683"/>
      <point x="138" y="689" type="curve"/>
      <point x="138" y="699"/>
      <point x="132" y="704"/>
      <point x="118" y="706" type="curve"/>
      <point x="112" y="709"/>
      <point x="103" y="706"/>
      <point x="100" y="707" type="curve"/>
      <point x="97" y="708"/>
      <point x="94" y="708"/>
      <point x="92" y="708" type="curve"/>
      <point x="82" y="708"/>
      <point x="74" y="701"/>
      <point x="75" y="667" type="curve"/>
      <point x="75" y="624" type="line"/>
      <point x="74" y="586" type="line" smooth="yes"/>
      <point x="74" y="584"/>
      <point x="73" y="583"/>
    </contour>
    <contour>
      <point x="158" y="0" type="move" name="bottom"/>
    </contour>
    <contour>
      <point x="153" y="582" type="move" name="top"/>
    </contour>
  </outline>
</glyph>
<glyph name="braceleft" format="1">
  <advance width="274"/>
  <unicode hex="007B"/>
  <outline>
    <contour>
      <point x="185" y="694" type="curve"/>
      <point x="206" y="694"/>
      <point x="220" y="694"/>
      <point x="220" y="713" type="curve"/>
      <point x="220" y="755" type="line" smooth="yes"/>
      <point x="220" y="766"/>
      <point x="225" y="778"/>
      <point x="206" y="778" type="curve"/>
      <point x="149" y="778"/>
      <point x="42" y="730"/>
      <point x="42" y="637" type="curve"/>
      <point x="42" y="501"/>
      <point x="77" y="487"/>
      <point x="77" y="429" type="curve"/>
      <point x="77" y="375"/>
      <point x="42" y="357"/>
      <point x="30" y="357" type="curve"/>
      <point x="23" y="357"/>
      <point x="23" y="350"/>
      <point x="23" y="335" type="curve"/>
      <point x="23" y="318"/>
      <point x="20" y="313"/>
      <point x="20" y="305" type="curve"/>
      <point x="20" y="298"/>
      <point x="21" y="293"/>
      <point x="34" y="293" type="curve"/>
      <point x="45" y="293"/>
      <point x="88" y="274"/>
      <point x="88" y="206" type="curve"/>
      <point x="88" y="142"/>
      <point x="66" y="81"/>
      <point x="66" y="26" type="curve"/>
      <point x="66" y="-31"/>
      <point x="121" y="-103"/>
      <point x="174" y="-103" type="curve"/>
      <point x="233" y="-103"/>
      <point x="241" y="-98"/>
      <point x="246" y="-98" type="curve"/>
      <point x="253" y="-98"/>
      <point x="260" y="-92"/>
      <point x="260" y="-81" type="curve"/>
      <point x="260" y="-73"/>
      <point x="256" y="-51"/>
      <point x="256" y="-41" type="curve"/>
      <point x="256" y="-32"/>
      <point x="255" y="-28"/>
      <point x="246" y="-28" type="curve"/>
      <point x="232" y="-28"/>
      <point x="152" y="-34"/>
      <point x="152" y="45" type="curve"/>
      <point x="152" y="124"/>
      <point x="166" y="138"/>
      <point x="166" y="203" type="curve"/>
      <point x="166" y="248"/>
      <point x="150" y="277"/>
      <point x="134" y="296" type="curve"/>
      <point x="125" y="307"/>
      <point x="114" y="315"/>
      <point x="102" y="321" type="curve"/>
      <point x="114" y="330"/>
      <point x="125" y="341"/>
      <point x="134" y="354" type="curve"/>
      <point x="150" y="377"/>
      <point x="166" y="410"/>
      <point x="166" y="457" type="curve"/>
      <point x="166" y="551"/>
      <point x="124" y="547"/>
      <point x="124" y="611" type="curve"/>
      <point x="124" y="679"/>
      <point x="164" y="691"/>
    </contour>
  </outline>
</glyph>
<glyph name="cent" format="1">
  <advance width="500"/>
  <unicode hex="00A2"/>
  <outline>
    <contour>
      <point x="379" y="450" type="curve"/>
      <point x="388" y="450"/>
      <point x="399" y="457"/>
      <point x="410" y="471" type="curve"/>
      <point x="441" y="519" type="line" smooth="yes"/>
      <point x="446" y="527"/>
      <point x="448" y="534"/>
      <point x="448" y="541" type="curve"/>
      <point x="448" y="549"/>
      <point x="445" y="557"/>
      <point x="438" y="564" type="curve"/>
      <point x="406" y="596"/>
      <point x="360" y="614"/>
      <point x="301" y="619" type="curve"/>
      <point x="302" y="644"/>
      <point x="303" y="663"/>
      <point x="305" y="675" type="curve"/>
      <point x="305" y="683"/>
      <point x="307" y="691"/>
      <point x="307" y="697" type="curve"/>
      <point x="307" y="704"/>
      <point x="305" y="709"/>
      <point x="297" y="709" type="curve"/>
      <point x="282" y="709"/>
      <point x="267" y="710"/>
      <point x="260" y="710" type="curve"/>
      <point x="247" y="710"/>
      <point x="244" y="700"/>
      <point x="244" y="687" type="curve"/>
      <point x="244" y="681"/>
      <point x="245" y="674"/>
      <point x="245" y="667" type="curve"/>
      <point x="246" y="661"/>
      <point x="246" y="643"/>
      <point x="245" y="619" type="curve"/>
      <point x="190" y="615"/>
      <point x="142" y="595"/>
      <point x="101" y="558" type="curve"/>
      <point x="55" y="517"/>
      <point x="32" y="454"/>
      <point x="31" y="369" type="curve"/>
      <point x="32" y="206"/>
      <point x="82" y="129"/>
      <point x="171" y="101" type="curve"/>
      <point x="194" y="94"/>
      <point x="215" y="90"/>
      <point x="234" y="87" type="curve"/>
      <point x="234" y="42" type="line" smooth="yes"/>
      <point x="234" y="-4"/>
      <point x="225" y="0"/>
      <point x="258" y="0" type="curve"/>
      <point x="270" y="0"/>
      <point x="283" y="0"/>
      <point x="289" y="4" type="curve"/>
      <point x="295" y="7"/>
      <point x="299" y="9"/>
      <point x="299" y="20" type="curve"/>
      <point x="299" y="24"/>
      <point x="299" y="28"/>
      <point x="298" y="34" type="curve"/>
      <point x="297" y="41"/>
      <point x="296" y="60"/>
      <point x="296" y="84" type="curve"/>
      <point x="336" y="89"/>
      <point x="366" y="97"/>
      <point x="388" y="107" type="curve"/>
      <point x="411" y="118"/>
      <point x="431" y="134"/>
      <point x="448" y="153" type="curve"/>
      <point x="464" y="171"/>
      <point x="470" y="185"/>
      <point x="466" y="196" type="curve"/>
      <point x="451" y="223"/>
      <point x="435" y="233"/>
      <point x="418" y="244" type="curve"/>
      <point x="410" y="250"/>
      <point x="405" y="255"/>
      <point x="398" y="255" type="curve"/>
      <point x="392" y="255"/>
      <point x="384" y="252"/>
      <point x="371" y="242" type="curve"/>
      <point x="348" y="228"/>
      <point x="331" y="219"/>
      <point x="320" y="214" type="curve"/>
      <point x="312" y="211"/>
      <point x="303" y="209"/>
      <point x="293" y="209" type="curve"/>
      <point x="292" y="286" type="line" smooth="yes"/>
      <point x="292" y="324"/>
      <point x="296" y="429"/>
      <point x="299" y="502" type="curve"/>
      <point x="318" y="495"/>
      <point x="339" y="480"/>
      <point x="362" y="457" type="curve"/>
      <point x="367" y="452"/>
      <point x="373" y="450"/>
    </contour>
    <contour>
      <point x="236" y="215" type="curve"/>
      <point x="186" y="232"/>
      <point x="161" y="274"/>
      <point x="161" y="344" type="curve"/>
      <point x="161" y="408"/>
      <point x="173" y="451"/>
      <point x="196" y="474" type="curve"/>
      <point x="211" y="488"/>
      <point x="226" y="498"/>
      <point x="241" y="504" type="curve"/>
      <point x="240" y="456"/>
      <point x="238" y="409"/>
      <point x="238" y="383" type="curve"/>
      <point x="238" y="352"/>
      <point x="237" y="283"/>
    </contour>
  </outline>
</glyph>
<glyph name="periodcentered" format="1">
  <advance width="235"/>
  <unicode hex="00B7"/>
  <outline>
    <contour>
      <point x="193" y="337" type="curve"/>
      <point x="193" y="369"/>
      <point x="187" y="426"/>
      <point x="117" y="426" type="curve"/>
      <point x="84" y="426"/>
      <point x="45" y="417"/>
      <point x="45" y="358" type="curve"/>
      <point x="45" y="303"/>
      <point x="81" y="278"/>
      <point x="117" y="278" type="curve"/>
      <point x="154" y="278"/>
      <point x="193" y="304"/>
    </contour>
  </outline>
</glyph>
<glyph name="caron" format="1">
  <advance width="352"/>
  <unicode hex="02C7"/>
  <outline>
    <contour>
      <point x="247" y="765" type="curve"/>
      <point x="277" y="788"/>
      <point x="285" y="789"/>
      <point x="295" y="794" type="curve"/>
      <point x="321" y="811" type="line" smooth="yes"/>
      <point x="326" y="814"/>
      <point x="329" y="819"/>
      <point x="329" y="823" type="curve"/>
      <point x="329" y="831"/>
      <point x="321" y="839"/>
      <point x="305" y="839" type="curve"/>
      <point x="292" y="839"/>
      <point x="280" y="838"/>
      <point x="267" y="836" type="curve"/>
      <point x="239" y="828"/>
      <point x="225" y="824"/>
      <point x="209" y="815" type="curve"/>
      <point x="202" y="811"/>
      <point x="187" y="804"/>
      <point x="164" y="794" type="curve"/>
      <point x="132" y="809" type="line"/>
      <point x="121" y="816"/>
      <point x="110" y="822"/>
      <point x="97" y="827" type="curve"/>
      <point x="70" y="834" type="line"/>
      <point x="59" y="838"/>
      <point x="50" y="841"/>
      <point x="43" y="841" type="curve"/>
      <point x="35" y="841"/>
      <point x="30" y="837"/>
      <point x="27" y="826" type="curve"/>
      <point x="23" y="813"/>
      <point x="53" y="797"/>
      <point x="61" y="792" type="curve"/>
      <point x="88" y="775"/>
      <point x="101" y="768"/>
      <point x="128" y="749" type="curve"/>
      <point x="145" y="740"/>
      <point x="151" y="734"/>
      <point x="166" y="734" type="curve"/>
      <point x="170" y="734"/>
      <point x="173" y="734"/>
      <point x="177" y="735" type="curve"/>
      <point x="182" y="735"/>
      <point x="188" y="736"/>
      <point x="195" y="739" type="curve"/>
      <point x="206" y="742"/>
      <point x="224" y="752"/>
    </contour>
    <contour>
      <point x="172" y="710" type="move" name="_top"/>
    </contour>
    <contour>
      <point x="172" y="900" type="move" name="top"/>
    </contour>
  </outline>
</glyph>
<glyph name="ring" format="1">
  <advance width="233"/>
  <unicode hex="02DA"/>
  <outline>
    <contour>
      <point x="112" y="715" type="curve"/>
      <point x="125" y="715"/>
      <point x="138" y="715"/>
      <point x="149" y="720" type="curve"/>
      <point x="183" y="735"/>
      <point x="192" y="777"/>
      <point x="192" y="787" type="curve"/>
      <point x="192" y="800"/>
      <point x="186" y="859"/>
      <point x="114" y="859" type="curve"/>
      <point x="79" y="859"/>
      <point x="59" y="841"/>
      <point x="52" y="821" type="curve"/>
      <point x="48" y="810"/>
      <point x="43" y="797"/>
      <point x="42" y="783" type="curve"/>
      <point x="42" y="746"/>
      <point x="77" y="715"/>
    </contour>
    <contour>
      <point x="91" y="787" type="curve"/>
      <point x="91" y="798"/>
      <point x="100" y="809"/>
      <point x="119" y="809" type="curve"/>
      <point x="135" y="809"/>
      <point x="144" y="797"/>
      <point x="144" y="787" type="curve"/>
      <point x="144" y="772"/>
      <point x="130" y="769"/>
      <point x="127" y="766" type="curve"/>
      <point x="126" y="766"/>
      <point x="121" y="765"/>
      <point x="116" y="765" type="curve"/>
      <point x="103" y="765"/>
      <point x="91" y="775"/>
    </contour>
    <contour>
      <point x="118" y="710" type="move" name="_top"/>
    </contour>
    <contour>
      <point x="118" y="900" type="move" name="top"/>
    </contour>
  </outline>
</glyph>
<glyph name="hungarumlaut" format="1">
  <advance width="442"/>
  <unicode hex="02DD"/>
  <outline>
    <contour>
      <point x="188" y="837" type="curve"/>
      <point x="180" y="837"/>
      <point x="165" y="834"/>
      <point x="153" y="830" type="curve"/>
      <point x="131" y="822" type="line"/>
      <point x="90" y="804"/>
      <point x="84" y="807"/>
      <point x="70" y="799" type="curve"/>
      <point x="60" y="796"/>
      <point x="22" y="781"/>
      <point x="20" y="774" type="curve"/>
      <point x="19" y="770"/>
      <point x="18" y="767"/>
      <point x="18" y="764" type="curve"/>
      <point x="18" y="752"/>
      <point x="29" y="745"/>
      <point x="38" y="742" type="curve"/>
      <point x="46" y="737"/>
      <point x="52" y="735"/>
      <point x="59" y="735" type="curve"/>
      <point x="68" y="735"/>
      <point x="77" y="739"/>
      <point x="91" y="744" type="curve"/>
      <point x="126" y="759"/>
      <point x="142" y="766"/>
      <point x="176" y="777" type="curve"/>
      <point x="187" y="780"/>
      <point x="220" y="794"/>
      <point x="225" y="811" type="curve"/>
      <point x="229" y="833"/>
      <point x="222" y="839"/>
      <point x="208" y="839" type="curve"/>
      <point x="203" y="839"/>
      <point x="196" y="838"/>
    </contour>
    <contour>
      <point x="386" y="837" type="curve"/>
      <point x="378" y="837"/>
      <point x="363" y="834"/>
      <point x="351" y="830" type="curve"/>
      <point x="329" y="822" type="line"/>
      <point x="288" y="804"/>
      <point x="282" y="807"/>
      <point x="268" y="799" type="curve"/>
      <point x="258" y="796"/>
      <point x="220" y="781"/>
      <point x="218" y="774" type="curve"/>
      <point x="217" y="770"/>
      <point x="216" y="767"/>
      <point x="216" y="764" type="curve"/>
      <point x="216" y="752"/>
      <point x="227" y="745"/>
      <point x="236" y="742" type="curve"/>
      <point x="244" y="737"/>
      <point x="250" y="735"/>
      <point x="257" y="735" type="curve"/>
      <point x="266" y="735"/>
      <point x="275" y="739"/>
      <point x="289" y="744" type="curve"/>
      <point x="323" y="760"/>
      <point x="340" y="766"/>
      <point x="374" y="777" type="curve"/>
      <point x="385" y="780"/>
      <point x="418" y="794"/>
      <point x="423" y="811" type="curve"/>
      <point x="427" y="833"/>
      <point x="420" y="839"/>
      <point x="406" y="839" type="curve"/>
      <point x="401" y="839"/>
      <point x="394" y="838"/>
    </contour>
    <contour>
      <point x="193" y="710" type="move" name="_top"/>
    </contour>
    <contour>
      <point x="193" y="900" type="move" name="top"/>
    </contour>
  </outline>
</glyph>
<glyph name="tildecomb" format="1">
  <advance width="0"/>
  <unicode hex="0303"/>
  <outline>
    <contour>
      <point x="382" y="759" type="curve"/>
      <point x="397" y="759"/>
      <point x="405" y="764"/>
      <point x="405" y="775" type="curve"/>
      <point x="405" y="790" type="line"/>
      <point x="403" y="798"/>
      <point x="407" y="804"/>
      <point x="376" y="815" type="curve"/>
      <point x="357" y="822"/>
      <point x="332" y="829"/>
      <point x="308" y="829" type="curve"/>
      <point x="256" y="829"/>
      <point x="221" y="815"/>
      <point x="193" y="808" type="curve"/>
      <point x="165" y="801"/>
      <point x="149" y="796"/>
      <point x="121" y="797" type="curve"/>
      <point x="89" y="798"/>
      <point x="72" y="817"/>
      <point x="64" y="817" type="curve"/>
      <point x="60" y="817"/>
      <point x="58" y="816"/>
      <point x="57" y="812" type="curve"/>
      <point x="55" y="805"/>
      <point x="55" y="796"/>
      <point x="55" y="789" type="curve"/>
      <point x="55" y="784"/>
      <point x="55" y="779"/>
      <point x="55" y="776" type="curve"/>
      <point x="55" y="767"/>
      <point x="60" y="747"/>
      <point x="121" y="747" type="curve"/>
      <point x="160" y="747"/>
      <point x="176" y="752"/>
      <point x="211" y="762" type="curve"/>
      <point x="245" y="772"/>
      <point x="263" y="779"/>
      <point x="305" y="779" type="curve"/>
      <point x="329" y="779"/>
      <point x="363" y="759"/>
    </contour>
    <contour>
      <point x="234" y="710" type="move" name="_top"/>
    </contour>
    <contour>
      <point x="234" y="900" type="move" name="top"/>
    </contour>
  </outline>
</glyph>
<glyph name="guilsinglright" format="1">
  <advance width="381"/>
  <unicode hex="203A"/>
  <outline>
    <contour>
      <point x="176" y="620" type="curve"/>
      <point x="173" y="620"/>
      <point x="158" y="620"/>
      <point x="131" y="619" type="curve"/>
      <point x="84" y="619" type="line" smooth="yes"/>
      <point x="73" y="619"/>
      <point x="60" y="618"/>
      <point x="55" y="618" type="curve"/>
      <point x="48" y="618"/>
      <point x="44" y="616"/>
      <point x="44" y="613" type="curve"/>
      <point x="44" y="609"/>
      <point x="48" y="604"/>
      <point x="55" y="596" type="curve"/>
      <point x="67" y="580"/>
      <point x="185" y="419"/>
      <point x="201" y="403" type="curve"/>
      <point x="208" y="394"/>
      <point x="218" y="379"/>
      <point x="229" y="359" type="curve"/>
      <point x="210" y="315"/>
      <point x="205" y="313"/>
      <point x="181" y="271" type="curve"/>
      <point x="150" y="236"/>
      <point x="143" y="219"/>
      <point x="123" y="192" type="curve"/>
      <point x="104" y="167"/>
      <point x="92" y="136"/>
      <point x="85" y="125" type="curve"/>
      <point x="78" y="114"/>
      <point x="74" y="104"/>
      <point x="74" y="96" type="curve"/>
      <point x="74" y="88"/>
      <point x="78" y="82"/>
      <point x="88" y="80" type="curve"/>
      <point x="111" y="74"/>
      <point x="147" y="75"/>
      <point x="172" y="75" type="curve"/>
      <point x="191" y="75"/>
      <point x="210" y="77"/>
      <point x="224" y="77" type="curve"/>
      <point x="239" y="77"/>
      <point x="253" y="87"/>
      <point x="257" y="112" type="curve"/>
      <point x="260" y="125"/>
      <point x="270" y="154"/>
      <point x="278" y="175" type="curve"/>
      <point x="283" y="186"/>
      <point x="299" y="215"/>
      <point x="327" y="263" type="curve"/>
      <point x="356" y="311"/>
      <point x="370" y="342"/>
      <point x="371" y="356" type="curve"/>
      <point x="358" y="373"/>
      <point x="345" y="387"/>
      <point x="334" y="398" type="curve"/>
      <point x="323" y="409"/>
      <point x="309" y="426"/>
      <point x="291" y="447" type="curve"/>
      <point x="273" y="468"/>
      <point x="262" y="482"/>
      <point x="259" y="488" type="curve"/>
      <point x="252" y="500"/>
      <point x="240" y="522"/>
      <point x="225" y="541" type="curve"/>
      <point x="210" y="561"/>
      <point x="211" y="573"/>
      <point x="203" y="581" type="curve"/>
      <point x="192" y="597"/>
      <point x="187" y="620"/>
    </contour>
  </outline>
</glyph>
<glyph name="uni2153" format="1">
  <advance width="725"/>
  <unicode hex="2153"/>
  <outline>
    <contour>
      <point x="570" y="697" type="curve"/>
      <point x="570" y="701"/>
      <point x="569" y="704"/>
      <point x="567" y="706" type="curve"/>
      <point x="554" y="712"/>
      <point x="544" y="714"/>
      <point x="536" y="714" type="curve"/>
      <point x="530" y="714"/>
      <point x="526" y="713"/>
      <point x="523" y="713" type="curve"/>
      <point x="511" y="709"/>
      <point x="492" y="685"/>
      <point x="480" y="660" type="curve"/>
      <point x="469" y="635"/>
      <point x="433" y="560"/>
      <point x="407" y="520" type="curve"/>
      <point x="386" y="484"/>
      <point x="287" y="309"/>
      <point x="254" y="244" type="curve"/>
      <point x="223" y="176"/>
      <point x="147" y="47"/>
      <point x="131" y="15" type="curve"/>
      <point x="122" y="0"/>
      <point x="120" y="-1"/>
      <point x="113" y="-16" type="curve"/>
      <point x="110" y="-24"/>
      <point x="112" y="-30"/>
      <point x="121" y="-35" type="curve"/>
      <point x="130" y="-37"/>
      <point x="141" y="-39"/>
      <point x="152" y="-39" type="curve"/>
      <point x="159" y="-39"/>
      <point x="167" y="-38"/>
      <point x="172" y="-36" type="curve"/>
      <point x="188" y="-24"/>
      <point x="192" y="-22"/>
      <point x="200" y="1" type="curve"/>
      <point x="208" y="23"/>
      <point x="302" y="189"/>
      <point x="321" y="226" type="curve"/>
      <point x="345" y="261"/>
      <point x="424" y="419"/>
      <point x="451" y="470" type="curve"/>
      <point x="475" y="520"/>
      <point x="536" y="624"/>
      <point x="549" y="645" type="curve"/>
      <point x="556" y="655"/>
      <point x="570" y="682"/>
    </contour>
    <contour>
      <point x="36" y="637" type="curve"/>
      <point x="37" y="630"/>
      <point x="64" y="641"/>
      <point x="120" y="652" type="curve"/>
      <point x="117" y="603" type="line" smooth="yes"/>
      <point x="117" y="595"/>
      <point x="116" y="586"/>
      <point x="116" y="578" type="curve"/>
      <point x="116" y="569"/>
      <point x="117" y="561"/>
      <point x="117" y="552" type="curve"/>
      <point x="120" y="525"/>
      <point x="119" y="487"/>
      <point x="119" y="460" type="curve"/>
      <point x="119" y="447"/>
      <point x="119" y="437"/>
      <point x="120" y="432" type="curve"/>
      <point x="120" y="425"/>
      <point x="120" y="418"/>
      <point x="119" y="410" type="curve"/>
      <point x="118" y="404"/>
      <point x="111" y="400"/>
      <point x="96" y="400" type="curve"/>
      <point x="94" y="400"/>
      <point x="92" y="400"/>
      <point x="90" y="400" type="curve"/>
      <point x="73" y="396"/>
      <point x="56" y="393"/>
      <point x="39" y="390" type="curve"/>
      <point x="35" y="389"/>
      <point x="33" y="385"/>
      <point x="33" y="378" type="curve"/>
      <point x="33" y="376"/>
      <point x="33" y="375"/>
      <point x="33" y="373" type="curve"/>
      <point x="34" y="363"/>
      <point x="37" y="358"/>
      <point x="42" y="358" type="curve"/>
      <point x="59" y="359"/>
      <point x="77" y="360"/>
      <point x="96" y="359" type="curve"/>
      <point x="170" y="362" type="line"/>
      <point x="195" y="361"/>
      <point x="211" y="358"/>
      <point x="236" y="358" type="curve"/>
      <point x="248" y="357"/>
      <point x="251" y="363"/>
      <point x="251" y="371" type="curve"/>
      <point x="251" y="377"/>
      <point x="249" y="384"/>
      <point x="249" y="390" type="curve"/>
      <point x="249" y="393"/>
      <point x="229" y="395"/>
      <point x="189" y="397" type="curve"/>
      <point x="185" y="416"/>
      <point x="184" y="471"/>
      <point x="184" y="488" type="curve"/>
      <point x="184" y="509"/>
      <point x="184" y="524"/>
      <point x="183" y="532" type="curve"/>
      <point x="182" y="540"/>
      <point x="182" y="550"/>
      <point x="182" y="563" type="curve"/>
      <point x="182" y="588"/>
      <point x="181" y="604"/>
      <point x="186" y="644" type="curve"/>
      <point x="186" y="663"/>
      <point x="187" y="679"/>
      <point x="187" y="704" type="curve"/>
      <point x="187" y="708"/>
      <point x="182" y="711"/>
      <point x="173" y="711" type="curve"/>
      <point x="170" y="711"/>
      <point x="165" y="710"/>
      <point x="160" y="709" type="curve"/>
      <point x="115" y="689"/>
      <point x="78" y="679"/>
      <point x="51" y="678" type="curve"/>
      <point x="38" y="673"/>
      <point x="34" y="671"/>
      <point x="34" y="658" type="curve"/>
      <point x="34" y="655"/>
      <point x="34" y="650"/>
      <point x="35" y="643" type="curve"/>
      <point x="35" y="641"/>
      <point x="35" y="639"/>
    </contour>
    <contour>
      <point x="623" y="168" type="curve"/>
      <point x="612" y="170"/>
      <point x="601" y="172"/>
      <point x="577" y="172" type="curve"/>
      <point x="551" y="172" type="line"/>
      <point x="550" y="172"/>
      <point x="549" y="173"/>
      <point x="549" y="174" type="curve"/>
      <point x="549" y="176"/>
      <point x="552" y="178"/>
      <point x="558" y="180" type="curve"/>
      <point x="572" y="188" type="line"/>
      <point x="593" y="201" type="line" smooth="yes"/>
      <point x="601" y="206"/>
      <point x="644" y="231"/>
      <point x="660" y="239" type="curve"/>
      <point x="660" y="321" type="line" smooth="yes"/>
      <point x="660" y="336"/>
      <point x="661" y="343"/>
      <point x="652" y="343" type="curve"/>
      <point x="642" y="343"/>
      <point x="597" y="344"/>
      <point x="562" y="344" type="curve"/>
      <point x="527" y="344"/>
      <point x="498" y="340"/>
      <point x="471" y="340" type="curve"/>
      <point x="461" y="340"/>
      <point x="450" y="342"/>
      <point x="441" y="342" type="curve"/>
      <point x="432" y="342"/>
      <point x="425" y="340"/>
      <point x="425" y="331" type="curve"/>
      <point x="426" y="325"/>
      <point x="426" y="316"/>
      <point x="426" y="308" type="curve"/>
      <point x="426" y="290"/>
      <point x="425" y="271"/>
      <point x="425" y="264" type="curve"/>
      <point x="425" y="255"/>
      <point x="423" y="246"/>
      <point x="435" y="246" type="curve"/>
      <point x="576" y="248" type="line" smooth="yes"/>
      <point x="587" y="248"/>
      <point x="603" y="249"/>
      <point x="603" y="245" type="curve"/>
      <point x="603" y="244"/>
      <point x="602" y="243"/>
      <point x="600" y="241" type="curve"/>
      <point x="588" y="233"/>
      <point x="492" y="175"/>
      <point x="484" y="171" type="curve"/>
      <point x="476" y="164"/>
      <point x="471" y="164"/>
      <point x="471" y="160" type="curve"/>
      <point x="471" y="157"/>
      <point x="471" y="152"/>
      <point x="472" y="145" type="curve"/>
      <point x="473" y="142"/>
      <point x="475" y="141"/>
      <point x="478" y="142" type="curve"/>
      <point x="478" y="141"/>
      <point x="482" y="141"/>
      <point x="487" y="141" type="curve"/>
      <point x="507" y="141"/>
      <point x="554" y="145"/>
      <point x="589" y="147" type="curve"/>
      <point x="635" y="147"/>
      <point x="665" y="124"/>
      <point x="665" y="96" type="curve"/>
      <point x="665" y="47"/>
      <point x="641" y="34"/>
      <point x="633" y="30" type="curve"/>
      <point x="624" y="26"/>
      <point x="591" y="10"/>
      <point x="550" y="10" type="curve"/>
      <point x="507" y="10"/>
      <point x="484" y="18"/>
      <point x="469" y="35" type="curve"/>
      <point x="454" y="54"/>
      <point x="447" y="69"/>
      <point x="446" y="74" type="curve"/>
      <point x="444" y="78"/>
      <point x="441" y="81"/>
      <point x="438" y="81" type="curve"/>
      <point x="437" y="81"/>
      <point x="436" y="81"/>
      <point x="435" y="80" type="curve"/>
      <point x="419" y="73"/>
      <point x="417" y="71"/>
      <point x="414" y="70" type="curve"/>
      <point x="411" y="69"/>
      <point x="405" y="67"/>
      <point x="412" y="58" type="curve"/>
      <point x="421" y="46"/>
      <point x="455" y="-16"/>
      <point x="518" y="-16" type="curve"/>
      <point x="581" y="-16"/>
      <point x="628" y="1"/>
      <point x="638" y="6" type="curve"/>
      <point x="647" y="9"/>
      <point x="694" y="40"/>
      <point x="694" y="96" type="curve"/>
      <point x="694" y="155"/>
      <point x="637" y="168"/>
    </contour>
  </outline>
</glyph>
<glyph name="uni2154" format="1">
  <advance width="725"/>
  <unicode hex="2154"/>
  <outline>
    <contour>
      <point x="577" y="697" type="curve"/>
      <point x="577" y="701"/>
      <point x="576" y="704"/>
      <point x="574" y="706" type="curve"/>
      <point x="561" y="712"/>
      <point x="551" y="714"/>
      <point x="543" y="714" type="curve"/>
      <point x="537" y="714"/>
      <point x="533" y="713"/>
      <point x="530" y="713" type="curve"/>
      <point x="518" y="709"/>
      <point x="499" y="685"/>
      <point x="487" y="660" type="curve"/>
      <point x="476" y="635"/>
      <point x="440" y="560"/>
      <point x="414" y="520" type="curve"/>
      <point x="393" y="484"/>
      <point x="294" y="309"/>
      <point x="261" y="244" type="curve"/>
      <point x="230" y="176"/>
      <point x="154" y="47"/>
      <point x="138" y="15" type="curve"/>
      <point x="129" y="0"/>
      <point x="127" y="-1"/>
      <point x="120" y="-16" type="curve"/>
      <point x="117" y="-24"/>
      <point x="119" y="-30"/>
      <point x="128" y="-35" type="curve"/>
      <point x="137" y="-37"/>
      <point x="148" y="-39"/>
      <point x="159" y="-39" type="curve"/>
      <point x="166" y="-39"/>
      <point x="174" y="-38"/>
      <point x="179" y="-36" type="curve"/>
      <point x="195" y="-24"/>
      <point x="199" y="-22"/>
      <point x="207" y="1" type="curve"/>
      <point x="215" y="23"/>
      <point x="309" y="189"/>
      <point x="328" y="226" type="curve"/>
      <point x="352" y="261"/>
      <point x="431" y="419"/>
      <point x="458" y="470" type="curve"/>
      <point x="482" y="520"/>
      <point x="543" y="624"/>
      <point x="556" y="645" type="curve"/>
      <point x="563" y="655"/>
      <point x="577" y="682"/>
    </contour>
    <contour>
      <point x="36" y="650" type="curve"/>
      <point x="32" y="646"/>
      <point x="29" y="642"/>
      <point x="36" y="638" type="curve"/>
      <point x="44" y="629" type="line"/>
      <point x="48" y="622"/>
      <point x="49" y="619"/>
      <point x="54" y="618" type="curve"/>
      <point x="60" y="618"/>
      <point x="76" y="642"/>
      <point x="93" y="649" type="curve"/>
      <point x="108" y="654"/>
      <point x="131" y="662"/>
      <point x="152" y="662" type="curve"/>
      <point x="169" y="662"/>
      <point x="185" y="652"/>
      <point x="190" y="643" type="curve"/>
      <point x="194" y="638"/>
      <point x="198" y="627"/>
      <point x="198" y="614" type="curve"/>
      <point x="198" y="605"/>
      <point x="196" y="596"/>
      <point x="192" y="586" type="curve"/>
      <point x="167" y="534"/>
      <point x="131" y="504"/>
      <point x="106" y="477" type="curve"/>
      <point x="87" y="458"/>
      <point x="53" y="420"/>
      <point x="25" y="385" type="curve"/>
      <point x="24" y="364"/>
      <point x="23" y="361"/>
      <point x="23" y="356" type="curve"/>
      <point x="23" y="351"/>
      <point x="28" y="350"/>
      <point x="33" y="350" type="curve"/>
      <point x="36" y="350"/>
      <point x="39" y="351"/>
      <point x="41" y="351" type="curve"/>
      <point x="162" y="351" type="line"/>
      <point x="169" y="350"/>
      <point x="179" y="350"/>
      <point x="190" y="350" type="curve"/>
      <point x="213" y="350"/>
      <point x="239" y="351"/>
      <point x="249" y="351" type="curve"/>
      <point x="266" y="351"/>
      <point x="272" y="352"/>
      <point x="272" y="365" type="curve"/>
      <point x="272" y="378"/>
      <point x="271" y="414"/>
      <point x="272" y="422" type="curve"/>
      <point x="272" y="431"/>
      <point x="275" y="438"/>
      <point x="254" y="438" type="curve"/>
      <point x="241" y="436"/>
      <point x="215" y="436"/>
      <point x="192" y="436" type="curve"/>
      <point x="176" y="436"/>
      <point x="162" y="436"/>
      <point x="153" y="436" type="curve"/>
      <point x="133" y="435"/>
      <point x="131" y="436"/>
      <point x="127" y="436" type="curve"/>
      <point x="123" y="436"/>
      <point x="128" y="440"/>
      <point x="131" y="443" type="curve"/>
      <point x="135" y="444"/>
      <point x="172" y="476"/>
      <point x="190" y="502" type="curve"/>
      <point x="205" y="519"/>
      <point x="218" y="533"/>
      <point x="223" y="541" type="curve"/>
      <point x="240" y="566"/>
      <point x="261" y="591"/>
      <point x="261" y="632" type="curve"/>
      <point x="261" y="651"/>
      <point x="253" y="670"/>
      <point x="237" y="685" type="curve"/>
      <point x="222" y="700"/>
      <point x="190" y="709"/>
      <point x="162" y="709" type="curve"/>
      <point x="131" y="704"/>
      <point x="77" y="688"/>
      <point x="61" y="676" type="curve"/>
      <point x="42" y="661"/>
      <point x="39" y="653"/>
    </contour>
    <contour>
      <point x="630" y="168" type="curve"/>
      <point x="619" y="170"/>
      <point x="608" y="172"/>
      <point x="584" y="172" type="curve"/>
      <point x="558" y="172" type="line"/>
      <point x="557" y="172"/>
      <point x="556" y="173"/>
      <point x="556" y="174" type="curve"/>
      <point x="556" y="176"/>
      <point x="559" y="178"/>
      <point x="565" y="180" type="curve"/>
      <point x="579" y="188" type="line"/>
      <point x="600" y="201" type="line" smooth="yes"/>
      <point x="608" y="206"/>
      <point x="651" y="231"/>
      <point x="667" y="239" type="curve"/>
      <point x="667" y="321" type="line" smooth="yes"/>
      <point x="667" y="336"/>
      <point x="668" y="343"/>
      <point x="659" y="343" type="curve"/>
      <point x="649" y="343"/>
      <point x="604" y="344"/>
      <point x="569" y="344" type="curve"/>
      <point x="534" y="344"/>
      <point x="505" y="340"/>
      <point x="478" y="340" type="curve"/>
      <point x="468" y="340"/>
      <point x="457" y="342"/>
      <point x="448" y="342" type="curve"/>
      <point x="439" y="342"/>
      <point x="432" y="340"/>
      <point x="432" y="331" type="curve"/>
      <point x="433" y="325"/>
      <point x="433" y="316"/>
      <point x="433" y="308" type="curve"/>
      <point x="433" y="290"/>
      <point x="432" y="271"/>
      <point x="432" y="264" type="curve"/>
      <point x="432" y="255"/>
      <point x="430" y="246"/>
      <point x="442" y="246" type="curve"/>
      <point x="583" y="248" type="line" smooth="yes"/>
      <point x="594" y="248"/>
      <point x="610" y="249"/>
      <point x="610" y="245" type="curve"/>
      <point x="610" y="244"/>
      <point x="609" y="243"/>
      <point x="607" y="241" type="curve"/>
      <point x="595" y="233"/>
      <point x="499" y="175"/>
      <point x="491" y="171" type="curve"/>
      <point x="483" y="164"/>
      <point x="478" y="164"/>
      <point x="478" y="160" type="curve"/>
      <point x="478" y="157"/>
      <point x="478" y="152"/>
      <point x="479" y="145" type="curve"/>
      <point x="480" y="142"/>
      <point x="482" y="141"/>
      <point x="485" y="142" type="curve"/>
      <point x="485" y="141"/>
      <point x="489" y="141"/>
      <point x="494" y="141" type="curve"/>
      <point x="514" y="141"/>
      <point x="561" y="145"/>
      <point x="596" y="147" type="curve"/>
      <point x="642" y="147"/>
      <point x="672" y="124"/>
      <point x="672" y="96" type="curve"/>
      <point x="672" y="47"/>
      <point x="648" y="34"/>
      <point x="640" y="30" type="curve"/>
      <point x="631" y="26"/>
      <point x="598" y="10"/>
      <point x="557" y="10" type="curve"/>
      <point x="514" y="10"/>
      <point x="491" y="18"/>
      <point x="476" y="35" type="curve"/>
      <point x="461" y="54"/>
      <point x="454" y="69"/>
      <point x="453" y="74" type="curve"/>
      <point x="451" y="78"/>
      <point x="448" y="81"/>
      <point x="445" y="81" type="curve"/>
      <point x="444" y="81"/>
      <point x="443" y="81"/>
      <point x="442" y="80" type="curve"/>
      <point x="426" y="73"/>
      <point x="424" y="71"/>
      <point x="421" y="70" type="curve"/>
      <point x="418" y="69"/>
      <point x="412" y="67"/>
      <point x="419" y="58" type="curve"/>
      <point x="428" y="46"/>
      <point x="462" y="-16"/>
      <point x="525" y="-16" type="curve"/>
      <point x="588" y="-16"/>
      <point x="635" y="1"/>
      <point x="645" y="6" type="curve"/>
      <point x="654" y="9"/>
      <point x="701" y="40"/>
      <point x="701" y="96" type="curve"/>
      <point x="701" y="155"/>
      <point x="644" y="168"/>
    </contour>
  </outline>
</glyph>
<glyph name="oneeighth" format="1">
  <advance width="725"/>
  <unicode hex="215B"/>
  <outline>
    <contour>
      <point x="570" y="697" type="curve"/>
      <point x="570" y="701"/>
      <point x="569" y="704"/>
      <point x="567" y="706" type="curve"/>
      <point x="554" y="712"/>
      <point x="544" y="714"/>
      <point x="536" y="714" type="curve"/>
      <point x="530" y="714"/>
      <point x="526" y="713"/>
      <point x="523" y="713" type="curve"/>
      <point x="511" y="709"/>
      <point x="492" y="685"/>
      <point x="480" y="660" type="curve"/>
      <point x="469" y="635"/>
      <point x="433" y="560"/>
      <point x="407" y="520" type="curve"/>
      <point x="386" y="484"/>
      <point x="287" y="309"/>
      <point x="254" y="244" type="curve"/>
      <point x="223" y="176"/>
      <point x="147" y="47"/>
      <point x="131" y="15" type="curve"/>
      <point x="122" y="0"/>
      <point x="120" y="-1"/>
      <point x="113" y="-16" type="curve"/>
      <point x="110" y="-24"/>
      <point x="112" y="-30"/>
      <point x="121" y="-35" type="curve"/>
      <point x="130" y="-37"/>
      <point x="141" y="-39"/>
      <point x="152" y="-39" type="curve"/>
      <point x="159" y="-39"/>
      <point x="167" y="-38"/>
      <point x="172" y="-36" type="curve"/>
      <point x="188" y="-24"/>
      <point x="192" y="-22"/>
      <point x="200" y="1" type="curve"/>
      <point x="208" y="23"/>
      <point x="302" y="189"/>
      <point x="321" y="226" type="curve"/>
      <point x="345" y="261"/>
      <point x="424" y="419"/>
      <point x="451" y="470" type="curve"/>
      <point x="475" y="520"/>
      <point x="536" y="624"/>
      <point x="549" y="645" type="curve"/>
      <point x="556" y="655"/>
      <point x="570" y="682"/>
    </contour>
    <contour>
      <point x="36" y="637" type="curve"/>
      <point x="37" y="630"/>
      <point x="64" y="641"/>
      <point x="120" y="652" type="curve"/>
      <point x="117" y="603" type="line" smooth="yes"/>
      <point x="117" y="595"/>
      <point x="116" y="586"/>
      <point x="116" y="578" type="curve"/>
      <point x="116" y="569"/>
      <point x="117" y="561"/>
      <point x="117" y="552" type="curve"/>
      <point x="120" y="525"/>
      <point x="119" y="487"/>
      <point x="119" y="460" type="curve"/>
      <point x="119" y="447"/>
      <point x="119" y="437"/>
      <point x="120" y="432" type="curve"/>
      <point x="120" y="425"/>
      <point x="120" y="418"/>
      <point x="119" y="410" type="curve"/>
      <point x="118" y="404"/>
      <point x="111" y="400"/>
      <point x="96" y="400" type="curve"/>
      <point x="94" y="400"/>
      <point x="92" y="400"/>
      <point x="90" y="400" type="curve"/>
      <point x="73" y="396"/>
      <point x="56" y="393"/>
      <point x="39" y="390" type="curve"/>
      <point x="35" y="389"/>
      <point x="33" y="385"/>
      <point x="33" y="378" type="curve"/>
      <point x="33" y="376"/>
      <point x="33" y="375"/>
      <point x="33" y="373" type="curve"/>
      <point x="34" y="363"/>
      <point x="37" y="358"/>
      <point x="42" y="358" type="curve"/>
      <point x="59" y="359"/>
      <point x="77" y="360"/>
      <point x="96" y="359" type="curve"/>
      <point x="170" y="362" type="line"/>
      <point x="195" y="361"/>
      <point x="211" y="358"/>
      <point x="236" y="358" type="curve"/>
      <point x="248" y="357"/>
      <point x="251" y="363"/>
      <point x="251" y="371" type="curve"/>
      <point x="251" y="377"/>
      <point x="249" y="384"/>
      <point x="249" y="390" type="curve"/>
      <point x="249" y="393"/>
      <point x="229" y="395"/>
      <point x="189" y="397" type="curve"/>
      <point x="185" y="416"/>
      <point x="184" y="471"/>
      <point x="184" y="488" type="curve"/>
      <point x="184" y="509"/>
      <point x="184" y="524"/>
      <point x="183" y="532" type="curve"/>
      <point x="182" y="540"/>
      <point x="182" y="550"/>
      <point x="182" y="563" type="curve"/>
      <point x="182" y="588"/>
      <point x="181" y="604"/>
      <point x="186" y="644" type="curve"/>
      <point x="186" y="663"/>
      <point x="187" y="679"/>
      <point x="187" y="704" type="curve"/>
      <point x="187" y="708"/>
      <point x="182" y="711"/>
      <point x="173" y="711" type="curve"/>
      <point x="170" y="711"/>
      <point x="165" y="710"/>
      <point x="160" y="709" type="curve"/>
      <point x="115" y="689"/>
      <point x="78" y="679"/>
      <point x="51" y="678" type="curve"/>
      <point x="38" y="673"/>
      <point x="34" y="671"/>
      <point x="34" y="658" type="curve"/>
      <point x="34" y="655"/>
      <point x="34" y="650"/>
      <point x="35" y="643" type="curve"/>
      <point x="35" y="641"/>
      <point x="35" y="639"/>
    </contour>
    <contour>
      <point x="645" y="153" type="curve"/>
      <point x="635" y="162"/>
      <point x="624" y="169"/>
      <point x="611" y="174" type="curve"/>
      <point x="621" y="181"/>
      <point x="629" y="189"/>
      <point x="635" y="198" type="curve"/>
      <point x="648" y="214"/>
      <point x="660" y="237"/>
      <point x="660" y="266" type="curve"/>
      <point x="660" y="325"/>
      <point x="588" y="339"/>
      <point x="559" y="339" type="curve"/>
      <point x="513" y="339"/>
      <point x="453" y="318"/>
      <point x="453" y="265" type="curve"/>
      <point x="453" y="214"/>
      <point x="487" y="203"/>
      <point x="500" y="195" type="curve"/>
      <point x="507" y="190"/>
      <point x="513" y="186"/>
      <point x="516" y="183" type="curve"/>
      <point x="517" y="181"/>
      <point x="519" y="179"/>
      <point x="522" y="178" type="curve"/>
      <point x="501" y="171"/>
      <point x="482" y="162"/>
      <point x="466" y="151" type="curve"/>
      <point x="438" y="133"/>
      <point x="410" y="105"/>
      <point x="410" y="71" type="curve"/>
      <point x="410" y="20"/>
      <point x="449" y="-18"/>
      <point x="532" y="-18" type="curve"/>
      <point x="614" y="-23"/>
      <point x="679" y="18"/>
      <point x="679" y="82" type="curve"/>
      <point x="679" y="117"/>
      <point x="662" y="138"/>
    </contour>
    <contour>
      <point x="524" y="218" type="curve"/>
      <point x="509" y="230"/>
      <point x="494" y="246"/>
      <point x="494" y="270" type="curve"/>
      <point x="494" y="291"/>
      <point x="531" y="305"/>
      <point x="554" y="305" type="curve"/>
      <point x="591" y="305"/>
      <point x="610" y="284"/>
      <point x="610" y="252" type="curve"/>
      <point x="610" y="236"/>
      <point x="597" y="222"/>
      <point x="584" y="214" type="curve"/>
      <point x="576" y="209"/>
      <point x="567" y="204"/>
      <point x="556" y="201" type="curve"/>
      <point x="544" y="205"/>
      <point x="533" y="211"/>
    </contour>
    <contour>
      <point x="621" y="82" type="curve"/>
      <point x="621" y="59"/>
      <point x="592" y="23"/>
      <point x="555" y="23" type="curve"/>
      <point x="517" y="23"/>
      <point x="471" y="27"/>
      <point x="471" y="71" type="curve"/>
      <point x="471" y="92"/>
      <point x="492" y="111"/>
      <point x="515" y="122" type="curve"/>
      <point x="528" y="129"/>
      <point x="542" y="134"/>
      <point x="558" y="139" type="curve"/>
      <point x="570" y="136"/>
      <point x="580" y="132"/>
      <point x="589" y="127" type="curve"/>
      <point x="605" y="118"/>
      <point x="621" y="105"/>
    </contour>
  </outline>
</glyph>
<glyph name="fi" format="1">
  <advance width="540"/>
  <unicode hex="FB01"/>
  <outline>
    <contour>
      <point x="54" y="469" type="curve"/>
      <point x="74" y="469" type="line"/>
      <point x="74" y="439" type="line"/>
      <point x="75" y="360"/>
      <point x="78" y="204"/>
      <point x="76" y="121" type="curve"/>
      <point x="76" y="38" type="line"/>
      <point x="74" y="4"/>
      <point x="82" y="-3"/>
      <point x="92" y="-3" type="curve"/>
      <point x="94" y="-3"/>
      <point x="110" y="-3"/>
      <point x="113" y="-2" type="curve"/>
      <point x="128" y="-1"/>
      <point x="172" y="-2"/>
      <point x="199" y="1" type="curve"/>
      <point x="214" y="3"/>
      <point x="219" y="8"/>
      <point x="219" y="18" type="curve"/>
      <point x="219" y="24"/>
      <point x="219" y="31"/>
      <point x="218" y="41" type="curve"/>
      <point x="215" y="65"/>
      <point x="210" y="124"/>
      <point x="213" y="223" type="curve"/>
      <point x="212" y="250"/>
      <point x="214" y="276"/>
      <point x="214" y="303" type="curve"/>
      <point x="215" y="436"/>
      <point x="214" y="445"/>
      <point x="216" y="471" type="curve"/>
      <point x="233" y="471"/>
      <point x="339" y="470"/>
      <point x="399" y="469" type="curve"/>
      <point x="399" y="426"/>
      <point x="392" y="224"/>
      <point x="392" y="170" type="curve"/>
      <point x="392" y="163"/>
      <point x="389" y="69"/>
      <point x="389" y="27" type="curve"/>
      <point x="389" y="-11"/>
      <point x="381" y="-8"/>
      <point x="411" y="-8" type="curve"/>
      <point x="425" y="-8"/>
      <point x="439" y="-8"/>
      <point x="447" y="-4" type="curve"/>
      <point x="450" y="-2"/>
      <point x="456" y="3"/>
      <point x="456" y="9" type="curve"/>
      <point x="456" y="12"/>
      <point x="456" y="15"/>
      <point x="455" y="20" type="curve"/>
      <point x="452" y="42"/>
      <point x="449" y="68"/>
      <point x="450" y="89" type="curve"/>
      <point x="452" y="140"/>
      <point x="457" y="226"/>
      <point x="457" y="271" type="curve"/>
      <point x="457" y="427"/>
      <point x="459" y="456"/>
      <point x="461" y="473" type="curve"/>
      <point x="461" y="478"/>
      <point x="463" y="491"/>
      <point x="463" y="496" type="curve"/>
      <point x="463" y="507"/>
      <point x="459" y="513"/>
      <point x="436" y="513" type="curve"/>
      <point x="417" y="513"/>
      <point x="237" y="511"/>
      <point x="216" y="511" type="curve"/>
      <point x="216" y="572" type="line" smooth="yes"/>
      <point x="216" y="637"/>
      <point x="265" y="633"/>
      <point x="300" y="633" type="curve"/>
      <point x="359" y="633"/>
      <point x="417" y="609"/>
      <point x="435" y="609" type="curve"/>
      <point x="463" y="616"/>
      <point x="473" y="690"/>
      <point x="468" y="710" type="curve"/>
      <point x="467" y="716"/>
      <point x="429" y="726"/>
      <point x="425" y="727" type="curve"/>
      <point x="390" y="736"/>
      <point x="324" y="743"/>
      <point x="287" y="743" type="curve"/>
      <point x="210" y="743"/>
      <point x="142" y="733"/>
      <point x="97" y="668" type="curve"/>
      <point x="61" y="616"/>
      <point x="77" y="447"/>
      <point x="77" y="498" type="curve"/>
      <point x="77" y="572"/>
      <point x="78" y="539"/>
      <point x="77" y="513" type="curve"/>
      <point x="57" y="513" type="line" smooth="yes"/>
      <point x="34" y="513"/>
      <point x="30" y="508"/>
      <point x="30" y="496" type="curve"/>
      <point x="30" y="491"/>
      <point x="31" y="488"/>
      <point x="31" y="483" type="curve"/>
      <point x="31" y="472"/>
      <point x="35" y="469"/>
    </contour>
  </outline>
</glyph>
<glyph name="fl" format="1">
  <advance width="570"/>
  <unicode hex="FB02"/>
  <outline>
    <contour>
      <point x="35" y="386" type="curve"/>
      <point x="35" y="381"/>
      <point x="36" y="378"/>
      <point x="36" y="373" type="curve"/>
      <point x="36" y="362"/>
      <point x="40" y="359"/>
      <point x="59" y="359" type="curve"/>
      <point x="79" y="359" type="line"/>
      <point x="79" y="329" type="line" smooth="yes"/>
      <point x="80" y="250"/>
      <point x="83" y="204"/>
      <point x="81" y="121" type="curve"/>
      <point x="81" y="38" type="line"/>
      <point x="79" y="4"/>
      <point x="87" y="-3"/>
      <point x="97" y="-3" type="curve"/>
      <point x="99" y="-3"/>
      <point x="115" y="-3"/>
      <point x="118" y="-2" type="curve"/>
      <point x="133" y="-1"/>
      <point x="177" y="-2"/>
      <point x="204" y="1" type="curve"/>
      <point x="219" y="3"/>
      <point x="224" y="8"/>
      <point x="224" y="18" type="curve"/>
      <point x="224" y="24"/>
      <point x="224" y="31"/>
      <point x="223" y="41" type="curve"/>
      <point x="220" y="65"/>
      <point x="215" y="124"/>
      <point x="218" y="223" type="curve"/>
      <point x="217" y="250"/>
      <point x="219" y="276"/>
      <point x="219" y="303" type="curve"/>
      <point x="220" y="326"/>
      <point x="219" y="335"/>
      <point x="221" y="361" type="curve"/>
      <point x="244" y="361"/>
      <point x="273" y="359"/>
      <point x="290" y="359" type="curve"/>
      <point x="309" y="359"/>
      <point x="313" y="362"/>
      <point x="313" y="373" type="curve"/>
      <point x="313" y="378"/>
      <point x="314" y="381"/>
      <point x="314" y="386" type="curve"/>
      <point x="314" y="397"/>
      <point x="310" y="403"/>
      <point x="287" y="403" type="curve"/>
      <point x="268" y="403"/>
      <point x="242" y="401"/>
      <point x="221" y="401" type="curve"/>
      <point x="221" y="551" type="line" smooth="yes"/>
      <point x="221" y="612"/>
      <point x="248" y="635"/>
      <point x="307" y="635" type="curve"/>
      <point x="338" y="635"/>
      <point x="371" y="633"/>
      <point x="416" y="626" type="curve"/>
      <point x="415" y="610"/>
      <point x="415" y="580"/>
      <point x="415" y="560" type="curve"/>
      <point x="415" y="368" type="line" smooth="yes"/>
      <point x="415" y="346"/>
      <point x="409" y="229"/>
      <point x="407" y="162" type="curve"/>
      <point x="404" y="58"/>
      <point x="391" y="-9"/>
      <point x="505" y="-4" type="curve"/>
      <point x="528" y="-3"/>
      <point x="546" y="-2"/>
      <point x="565" y="16" type="curve"/>
      <point x="559" y="57" type="line"/>
      <point x="559" y="59"/>
      <point x="559" y="72"/>
      <point x="548" y="72" type="curve"/>
      <point x="541" y="72"/>
      <point x="535" y="69"/>
      <point x="517" y="69" type="curve"/>
      <point x="488" y="69"/>
      <point x="466" y="88"/>
      <point x="466" y="132" type="curve"/>
      <point x="466" y="152" type="line" smooth="yes"/>
      <point x="466" y="195"/>
      <point x="470" y="255"/>
      <point x="470" y="278" type="curve"/>
      <point x="470" y="514" type="line"/>
      <point x="469" y="613"/>
      <point x="476" y="662"/>
      <point x="478" y="686" type="curve"/>
      <point x="479" y="696"/>
      <point x="480" y="703"/>
      <point x="480" y="709" type="curve"/>
      <point x="480" y="719"/>
      <point x="484" y="729"/>
      <point x="456" y="732" type="curve"/>
      <point x="396" y="738"/>
      <point x="344" y="743"/>
      <point x="294" y="743" type="curve"/>
      <point x="207" y="743"/>
      <point x="139" y="727"/>
      <point x="106" y="666" type="curve"/>
      <point x="83" y="623"/>
      <point x="81" y="547"/>
      <point x="82" y="496" type="curve"/>
      <point x="83" y="460"/>
      <point x="83" y="429"/>
      <point x="82" y="403" type="curve"/>
      <point x="62" y="403" type="line" smooth="yes"/>
      <point x="39" y="403"/>
      <point x="35" y="398"/>
    </contour>
  </outline>
</glyph>
<glyph name="F_F.alt" format="1">
  <advance width="768"/>
  <outline>
    <contour>
      <point x="567" y="704" type="curve"/>
      <point x="564" y="704" type="line"/>
      <point x="566" y="704" type="line"/>
      <point x="567" y="704"/>
      <point x="567" y="704"/>
    </contour>
    <contour>
      <point x="758" y="576" type="curve"/>
      <point x="758" y="578"/>
      <point x="758" y="581"/>
      <point x="758" y="584" type="curve"/>
      <point x="758" y="604" type="line"/>
      <point x="757" y="671" type="line" smooth="yes"/>
      <point x="757" y="678"/>
      <point x="758" y="684"/>
      <point x="758" y="688" type="curve"/>
      <point x="758" y="697"/>
      <point x="755" y="701"/>
      <point x="740" y="701" type="curve"/>
      <point x="717" y="701"/>
      <point x="677" y="703"/>
      <point x="649" y="703" type="curve"/>
      <point x="594" y="703" type="line"/>
      <point x="585" y="704"/>
      <point x="576" y="704"/>
      <point x="566" y="704" type="curve"/>
      <point x="539" y="704"/>
      <point x="479" y="700"/>
      <point x="443" y="700" type="curve"/>
      <point x="432" y="700"/>
      <point x="417" y="702"/>
      <point x="409" y="702" type="curve"/>
      <point x="401" y="702"/>
      <point x="395" y="701"/>
      <point x="395" y="686" type="curve"/>
      <point x="395" y="685"/>
      <point x="395" y="683"/>
      <point x="395" y="682" type="curve"/>
      <point x="395" y="673"/>
      <point x="394" y="661"/>
      <point x="393" y="649" type="curve"/>
      <point x="376" y="649" type="line" smooth="yes"/>
      <point x="368" y="649"/>
      <point x="354" y="647"/>
      <point x="315" y="646" type="curve"/>
      <point x="278" y="645"/>
      <point x="263" y="644"/>
      <point x="252" y="644" type="curve"/>
      <point x="232" y="644"/>
      <point x="136" y="640"/>
      <point x="112" y="640" type="curve"/>
      <point x="101" y="640"/>
      <point x="92" y="642"/>
      <point x="84" y="642" type="curve"/>
      <point x="73" y="642"/>
      <point x="66" y="637"/>
      <point x="66" y="612" type="curve"/>
      <point x="67" y="571"/>
      <point x="68" y="531"/>
      <point x="68" y="484" type="curve"/>
      <point x="68" y="464"/>
      <point x="65" y="422"/>
      <point x="65" y="378" type="curve"/>
      <point x="65" y="334"/>
      <point x="66" y="307"/>
      <point x="66" y="264" type="curve"/>
      <point x="66" y="221"/>
      <point x="60" y="202"/>
      <point x="60" y="159" type="curve"/>
      <point x="60" y="116"/>
      <point x="62" y="92"/>
      <point x="62" y="77" type="curve"/>
      <point x="63" y="24" type="line" smooth="yes"/>
      <point x="63" y="12"/>
      <point x="60" y="5"/>
      <point x="79" y="4" type="curve"/>
      <point x="90" y="4"/>
      <point x="123" y="5"/>
      <point x="152" y="5" type="curve"/>
      <point x="166" y="5"/>
      <point x="180" y="5"/>
      <point x="189" y="4" type="curve"/>
      <point x="198" y="3"/>
      <point x="206" y="2"/>
      <point x="212" y="2" type="curve"/>
      <point x="227" y="2"/>
      <point x="235" y="7"/>
      <point x="235" y="25" type="curve"/>
      <point x="234" y="133" type="line" smooth="yes"/>
      <point x="234" y="168"/>
      <point x="237" y="196"/>
      <point x="237" y="231" type="curve"/>
      <point x="237" y="248"/>
      <point x="236" y="273"/>
      <point x="236" y="294" type="curve"/>
      <point x="235" y="306"/>
      <point x="235" y="319"/>
      <point x="235" y="332" type="curve"/>
      <point x="345" y="332" type="line" smooth="yes"/>
      <point x="360" y="332"/>
      <point x="378" y="331"/>
      <point x="392" y="330" type="curve"/>
      <point x="391" y="299"/>
      <point x="388" y="203"/>
      <point x="388" y="167" type="curve"/>
      <point x="388" y="145"/>
      <point x="387" y="111"/>
      <point x="387" y="83" type="curve"/>
      <point x="387" y="62"/>
      <point x="388" y="44"/>
      <point x="389" y="36" type="curve"/>
      <point x="390" y="15"/>
      <point x="386" y="2"/>
      <point x="402" y="1" type="curve"/>
      <point x="471" y="1" type="line" smooth="yes"/>
      <point x="484" y="1"/>
      <point x="494" y="0"/>
      <point x="494" y="16" type="curve"/>
      <point x="494" y="25"/>
      <point x="493" y="49"/>
      <point x="493" y="75" type="curve"/>
      <point x="493" y="94"/>
      <point x="494" y="113"/>
      <point x="495" y="126" type="curve"/>
      <point x="496" y="141"/>
      <point x="498" y="192"/>
      <point x="498" y="243" type="curve"/>
      <point x="498" y="340" type="line"/>
      <point x="512" y="341"/>
      <point x="525" y="341"/>
      <point x="537" y="341" type="curve"/>
      <point x="563" y="341" type="line" smooth="yes"/>
      <point x="582" y="341"/>
      <point x="642" y="339"/>
      <point x="656" y="339" type="curve"/>
      <point x="671" y="339"/>
      <point x="687" y="338"/>
      <point x="696" y="338" type="curve"/>
      <point x="704" y="338"/>
      <point x="709" y="338"/>
      <point x="710" y="349" type="curve"/>
      <point x="714" y="362"/>
      <point x="715" y="368"/>
      <point x="715" y="378" type="curve"/>
      <point x="715" y="384"/>
      <point x="713" y="390"/>
      <point x="695" y="390" type="curve"/>
      <point x="672" y="390"/>
      <point x="642" y="386"/>
      <point x="602" y="386" type="curve"/>
      <point x="557" y="386" type="line" smooth="yes"/>
      <point x="545" y="386"/>
      <point x="530" y="385"/>
      <point x="517" y="385" type="curve"/>
      <point x="495" y="385" type="line"/>
      <point x="497" y="398" type="line" smooth="yes"/>
      <point x="498" y="406"/>
      <point x="499" y="415"/>
      <point x="499" y="426" type="curve"/>
      <point x="499" y="547" type="line" smooth="yes"/>
      <point x="499" y="553"/>
      <point x="499" y="559"/>
      <point x="500" y="565" type="curve"/>
      <point x="521" y="567" type="line" smooth="yes"/>
      <point x="533" y="568"/>
      <point x="548" y="569"/>
      <point x="563" y="569" type="curve"/>
      <point x="642" y="569" type="line" smooth="yes"/>
      <point x="661" y="569"/>
      <point x="728" y="563"/>
      <point x="743" y="563" type="curve"/>
      <point x="757" y="563"/>
      <point x="758" y="566"/>
    </contour>
    <contour>
      <point x="268" y="391" type="curve"/>
      <point x="258" y="390"/>
      <point x="248" y="390"/>
      <point x="237" y="390" type="curve"/>
      <point x="237" y="414" type="line" smooth="yes"/>
      <point x="237" y="421"/>
      <point x="237" y="435"/>
      <point x="238" y="455" type="curve"/>
      <point x="238" y="491"/>
      <point x="239" y="501"/>
      <point x="239" y="524" type="curve"/>
      <point x="239" y="529"/>
      <point x="240" y="538"/>
      <point x="241" y="549" type="curve"/>
      <point x="244" y="567" type="line"/>
      <point x="261" y="567"/>
      <point x="276" y="568"/>
      <point x="289" y="569" type="curve"/>
      <point x="336" y="572" type="line" smooth="yes"/>
      <point x="357" y="573"/>
      <point x="371" y="573"/>
      <point x="378" y="573" type="curve"/>
      <point x="391" y="573" type="line"/>
      <point x="391" y="520" type="line" smooth="yes"/>
      <point x="391" y="492"/>
      <point x="388" y="465"/>
      <point x="388" y="424" type="curve"/>
      <point x="389" y="394" type="line"/>
      <point x="372" y="393"/>
      <point x="351" y="392"/>
      <point x="308" y="392" type="curve"/>
      <point x="299" y="392"/>
      <point x="283" y="391"/>
    </contour>
  </outline>
</glyph>
<glyph name="K.alt" format="1">
  <advance width="553"/>
  <outline>
    <contour>
      <point x="213" y="14" type="curve"/>
      <point x="213" y="32"/>
      <point x="208" y="89"/>
      <point x="208" y="110" type="curve"/>
      <point x="208" y="194" type="line"/>
      <point x="246" y="162" type="line"/>
      <point x="266" y="143"/>
      <point x="290" y="124"/>
      <point x="303" y="111" type="curve"/>
      <point x="330" y="84"/>
      <point x="357" y="56"/>
      <point x="372" y="40" type="curve"/>
      <point x="387" y="23"/>
      <point x="402" y="10"/>
      <point x="409" y="3" type="curve"/>
      <point x="417" y="-4"/>
      <point x="428" y="-9"/>
      <point x="448" y="-8" type="curve"/>
      <point x="467" y="-8"/>
      <point x="520" y="-5"/>
      <point x="531" y="-5" type="curve"/>
      <point x="540" y="-7"/>
      <point x="551" y="-4"/>
      <point x="551" y="2" type="curve"/>
      <point x="551" y="3"/>
      <point x="550" y="5"/>
      <point x="549" y="6" type="curve"/>
      <point x="541" y="14"/>
      <point x="491" y="69"/>
      <point x="457" y="100" type="curve"/>
      <point x="422" y="132"/>
      <point x="363" y="201"/>
      <point x="352" y="212" type="curve"/>
      <point x="341" y="223"/>
      <point x="289" y="277"/>
      <point x="276" y="293" type="curve"/>
      <point x="261" y="309"/>
      <point x="250" y="316"/>
      <point x="250" y="323" type="curve"/>
      <point x="250" y="328"/>
      <point x="288" y="391"/>
      <point x="301" y="407" type="curve"/>
      <point x="315" y="423"/>
      <point x="401" y="540"/>
      <point x="417" y="564" type="curve"/>
      <point x="436" y="588"/>
      <point x="509" y="677"/>
      <point x="514" y="682" type="curve"/>
      <point x="519" y="687"/>
      <point x="524" y="691"/>
      <point x="524" y="696" type="curve"/>
      <point x="524" y="700"/>
      <point x="518" y="703"/>
      <point x="506" y="703" type="curve"/>
      <point x="505" y="703"/>
      <point x="504" y="703"/>
      <point x="502" y="703" type="curve"/>
      <point x="487" y="702"/>
      <point x="469" y="700"/>
      <point x="460" y="700" type="curve"/>
      <point x="451" y="699"/>
      <point x="436" y="702"/>
      <point x="431" y="686" type="curve"/>
      <point x="425" y="669"/>
      <point x="384" y="624"/>
      <point x="374" y="609" type="curve"/>
      <point x="364" y="594"/>
      <point x="285" y="484"/>
      <point x="266" y="460" type="curve"/>
      <point x="229" y="412" type="line" smooth="yes"/>
      <point x="222" y="402"/>
      <point x="214" y="392"/>
      <point x="205" y="382" type="curve"/>
      <point x="204" y="397"/>
      <point x="204" y="411"/>
      <point x="204" y="424" type="curve"/>
      <point x="204" y="490" type="line" smooth="yes"/>
      <point x="204" y="522"/>
      <point x="215" y="600"/>
      <point x="215" y="628" type="curve"/>
      <point x="215" y="657"/>
      <point x="214" y="670"/>
      <point x="214" y="677" type="curve"/>
      <point x="214" y="684"/>
      <point x="213" y="691"/>
      <point x="198" y="691" type="curve"/>
      <point x="84" y="692" type="line" smooth="yes"/>
      <point x="78" y="692"/>
      <point x="69" y="695"/>
      <point x="62" y="695" type="curve"/>
      <point x="56" y="695"/>
      <point x="52" y="693"/>
      <point x="52" y="686" type="curve"/>
      <point x="51" y="607" type="line" smooth="yes"/>
      <point x="51" y="594"/>
      <point x="50" y="568"/>
      <point x="50" y="541" type="curve"/>
      <point x="50" y="528"/>
      <point x="50" y="515"/>
      <point x="51" y="503" type="curve"/>
      <point x="53" y="481"/>
      <point x="53" y="419"/>
      <point x="53" y="362" type="curve"/>
      <point x="53" y="324"/>
      <point x="53" y="288"/>
      <point x="53" y="268" type="curve"/>
      <point x="54" y="23" type="line" smooth="yes"/>
      <point x="54" y="7"/>
      <point x="53" y="0"/>
      <point x="64" y="0" type="curve"/>
      <point x="74" y="0"/>
      <point x="127" y="3"/>
      <point x="141" y="3" type="curve"/>
      <point x="156" y="3"/>
      <point x="185" y="0"/>
      <point x="194" y="0" type="curve"/>
      <point x="202" y="0"/>
      <point x="213" y="-3"/>
    </contour>
    <contour>
      <point x="299" y="0" type="move" name="bottom"/>
    </contour>
    <contour>
      <point x="286" y="710" type="move" name="top"/>
    </contour>
  </outline>
</glyph>
<glyph name="L_A_S" format="1">
  <advance width="971"/>
  <outline>
    <contour>
      <point x="474" y="-6" type="curve"/>
      <point x="930" y="-6" type="line"/>
      <point x="948" y="-6"/>
      <point x="943" y="8"/>
      <point x="943" y="18" type="curve"/>
      <point x="943" y="90" type="line" smooth="yes"/>
      <point x="943" y="98"/>
      <point x="937" y="101"/>
      <point x="928" y="101" type="curve"/>
      <point x="922" y="101"/>
      <point x="914" y="100"/>
      <point x="907" y="100" type="curve"/>
      <point x="896" y="100"/>
      <point x="867" y="104"/>
      <point x="780" y="104" type="curve"/>
      <point x="762" y="104"/>
      <point x="743" y="107"/>
      <point x="431" y="107" type="curve"/>
      <point x="351" y="107"/>
      <point x="284" y="108"/>
      <point x="269" y="108" type="curve"/>
      <point x="256" y="111"/>
      <point x="240" y="111"/>
      <point x="223" y="111" type="curve"/>
      <point x="190" y="111"/>
      <point x="105" y="108"/>
      <point x="90" y="108" type="curve"/>
      <point x="58" y="108"/>
      <point x="65" y="101"/>
      <point x="65" y="86" type="curve"/>
      <point x="65" y="69"/>
      <point x="55" y="14"/>
      <point x="59" y="4" type="curve"/>
      <point x="59" y="-2"/>
      <point x="65" y="-4"/>
      <point x="74" y="-4" type="curve"/>
      <point x="80" y="-4"/>
      <point x="87" y="-3"/>
      <point x="95" y="-2" type="curve"/>
      <point x="245" y="-2" type="line" smooth="yes"/>
      <point x="258" y="-2"/>
      <point x="273" y="-2"/>
      <point x="293" y="-3" type="curve"/>
      <point x="313" y="-4"/>
      <point x="403" y="-6"/>
    </contour>
    <contour>
      <point x="807" y="657" type="curve"/>
      <point x="849" y="657"/>
      <point x="890" y="628"/>
      <point x="899" y="622" type="curve"/>
      <point x="904" y="618" type="line" smooth="yes"/>
      <point x="908" y="615"/>
      <point x="911" y="614"/>
      <point x="914" y="614" type="curve"/>
      <point x="920" y="614"/>
      <point x="931" y="637"/>
      <point x="935" y="641" type="curve"/>
      <point x="937" y="643"/>
      <point x="938" y="644"/>
      <point x="938" y="647" type="curve"/>
      <point x="938" y="650"/>
      <point x="935" y="654"/>
      <point x="930" y="657" type="curve"/>
      <point x="921" y="662"/>
      <point x="879" y="705"/>
      <point x="804" y="705" type="curve"/>
      <point x="728" y="705"/>
      <point x="633" y="651"/>
      <point x="633" y="551" type="curve"/>
      <point x="633" y="467"/>
      <point x="683" y="426"/>
      <point x="741" y="393" type="curve"/>
      <point x="800" y="359"/>
      <point x="853" y="342"/>
      <point x="853" y="293" type="curve"/>
      <point x="853" y="206"/>
      <point x="775" y="209"/>
      <point x="747" y="209" type="curve"/>
      <point x="720" y="209"/>
      <point x="681" y="230"/>
      <point x="668" y="243" type="curve"/>
      <point x="657" y="254"/>
      <point x="658" y="255"/>
      <point x="653" y="255" type="curve"/>
      <point x="653" y="255"/>
      <point x="652" y="255"/>
      <point x="652" y="255" type="curve"/>
      <point x="646" y="255"/>
      <point x="634" y="231"/>
      <point x="632" y="227" type="curve"/>
      <point x="630" y="224"/>
      <point x="630" y="220"/>
      <point x="636" y="214" type="curve"/>
      <point x="642" y="208"/>
      <point x="689" y="161"/>
      <point x="755" y="161" type="curve"/>
      <point x="821" y="161"/>
      <point x="942" y="180"/>
      <point x="942" y="316" type="curve"/>
      <point x="942" y="440"/>
      <point x="842" y="462"/>
      <point x="784" y="493" type="curve"/>
      <point x="746" y="513"/>
      <point x="710" y="531"/>
      <point x="710" y="578" type="curve"/>
      <point x="710" y="623"/>
      <point x="733" y="657"/>
    </contour>
    <contour>
      <point x="284" y="326" type="curve"/>
      <point x="280" y="313"/>
      <point x="277" y="303"/>
      <point x="272" y="288" type="curve"/>
      <point x="270" y="283"/>
      <point x="269" y="275"/>
      <point x="268" y="273" type="curve"/>
      <point x="264" y="258"/>
      <point x="262" y="252"/>
      <point x="269" y="252" type="curve"/>
      <point x="293" y="252" type="line" smooth="yes"/>
      <point x="300" y="252"/>
      <point x="299" y="253"/>
      <point x="301" y="259" type="curve"/>
      <point x="303" y="266"/>
      <point x="304" y="273"/>
      <point x="306" y="279" type="curve"/>
      <point x="311" y="295"/>
      <point x="315" y="305"/>
      <point x="318" y="317" type="curve"/>
      <point x="321" y="332" type="line"/>
      <point x="322" y="339" type="line" smooth="yes"/>
      <point x="323" y="346"/>
      <point x="326" y="348"/>
      <point x="329" y="348" type="curve"/>
      <point x="330" y="348"/>
      <point x="330" y="348"/>
      <point x="331" y="348" type="curve"/>
      <point x="377" y="348" type="line" smooth="yes"/>
      <point x="402" y="348"/>
      <point x="427" y="348"/>
      <point x="434" y="349" type="curve"/>
      <point x="439" y="350"/>
      <point x="454" y="349"/>
      <point x="466" y="350" type="curve"/>
      <point x="474" y="351"/>
      <point x="482" y="351"/>
      <point x="490" y="351" type="curve"/>
      <point x="498" y="351"/>
      <point x="499" y="351"/>
      <point x="504" y="339" type="curve"/>
      <point x="509" y="324" type="line" smooth="yes"/>
      <point x="514" y="311"/>
      <point x="518" y="298"/>
      <point x="521" y="291" type="curve"/>
      <point x="528" y="278"/>
      <point x="535" y="250"/>
      <point x="538" y="239" type="curve"/>
      <point x="538" y="233"/>
      <point x="541" y="219"/>
      <point x="547" y="204" type="curve"/>
      <point x="549" y="196"/>
      <point x="551" y="187"/>
      <point x="555" y="177" type="curve"/>
      <point x="557" y="171"/>
      <point x="560" y="170"/>
      <point x="563" y="170" type="curve"/>
      <point x="614" y="170" type="line" smooth="yes"/>
      <point x="621" y="170"/>
      <point x="623" y="171"/>
      <point x="623" y="173" type="curve"/>
      <point x="623" y="175"/>
      <point x="622" y="177"/>
      <point x="620" y="181" type="curve"/>
      <point x="615" y="190"/>
      <point x="596" y="240"/>
      <point x="590" y="264" type="curve"/>
      <point x="584" y="288"/>
      <point x="565" y="343"/>
      <point x="559" y="362" type="curve"/>
      <point x="550" y="381"/>
      <point x="523" y="456"/>
      <point x="517" y="471" type="curve"/>
      <point x="513" y="485"/>
      <point x="480" y="574"/>
      <point x="478" y="588" type="curve"/>
      <point x="474" y="600"/>
      <point x="458" y="662"/>
      <point x="450" y="682" type="curve"/>
      <point x="442" y="703"/>
      <point x="436" y="720"/>
      <point x="429" y="720" type="curve"/>
      <point x="415" y="720"/>
      <point x="393" y="705"/>
      <point x="387" y="683" type="curve"/>
      <point x="383" y="663"/>
      <point x="367" y="620"/>
      <point x="363" y="608" type="curve"/>
      <point x="358" y="597"/>
      <point x="352" y="577"/>
      <point x="345" y="555" type="curve"/>
      <point x="339" y="532"/>
      <point x="329" y="495"/>
      <point x="325" y="476" type="curve"/>
      <point x="321" y="459"/>
      <point x="310" y="427"/>
      <point x="305" y="404" type="curve"/>
      <point x="299" y="382"/>
      <point x="293" y="358"/>
    </contour>
    <contour>
      <point x="480" y="407" type="curve"/>
      <point x="480" y="403"/>
      <point x="478" y="402"/>
      <point x="471" y="402" type="curve"/>
      <point x="462" y="402"/>
      <point x="445" y="402"/>
      <point x="429" y="402" type="curve"/>
      <point x="418" y="402"/>
      <point x="408" y="402"/>
      <point x="403" y="401" type="curve"/>
      <point x="393" y="401"/>
      <point x="367" y="399"/>
      <point x="359" y="399" type="curve"/>
      <point x="352" y="399"/>
      <point x="338" y="397"/>
      <point x="338" y="407" type="curve"/>
      <point x="338" y="408"/>
      <point x="338" y="410"/>
      <point x="339" y="412" type="curve"/>
      <point x="347" y="427"/>
      <point x="361" y="486"/>
      <point x="364" y="504" type="curve"/>
      <point x="370" y="522"/>
      <point x="390" y="591"/>
      <point x="393" y="608" type="curve"/>
      <point x="399" y="625"/>
      <point x="403" y="645"/>
      <point x="406" y="645" type="curve"/>
      <point x="409" y="645"/>
      <point x="417" y="619"/>
      <point x="421" y="605" type="curve"/>
      <point x="423" y="592"/>
      <point x="440" y="533"/>
      <point x="448" y="510" type="curve"/>
      <point x="456" y="487"/>
      <point x="469" y="437"/>
      <point x="475" y="424" type="curve"/>
      <point x="479" y="416"/>
      <point x="480" y="410"/>
    </contour>
    <contour>
      <point x="436" y="214" type="curve"/>
      <point x="312" y="215" type="line"/>
      <point x="209" y="218" type="line"/>
      <point x="208" y="245" type="line" smooth="yes"/>
      <point x="208" y="252"/>
      <point x="207" y="259"/>
      <point x="207" y="266" type="curve"/>
      <point x="207" y="272"/>
      <point x="208" y="278"/>
      <point x="208" y="281" type="curve"/>
      <point x="208" y="294"/>
      <point x="209" y="349"/>
      <point x="209" y="363" type="curve"/>
      <point x="209" y="377"/>
      <point x="207" y="499"/>
      <point x="207" y="532" type="curve"/>
      <point x="207" y="565"/>
      <point x="211" y="652"/>
      <point x="211" y="664" type="curve"/>
      <point x="211" y="682"/>
      <point x="223" y="704"/>
      <point x="193" y="699" type="curve"/>
      <point x="181" y="697"/>
      <point x="169" y="697"/>
      <point x="155" y="697" type="curve"/>
      <point x="135" y="697"/>
      <point x="110" y="698"/>
      <point x="100" y="700" type="curve"/>
      <point x="90" y="700"/>
      <point x="80" y="704"/>
      <point x="73" y="704" type="curve"/>
      <point x="67" y="704"/>
      <point x="63" y="701"/>
      <point x="63" y="691" type="curve"/>
      <point x="63" y="670"/>
      <point x="70" y="520"/>
      <point x="70" y="496" type="curve"/>
      <point x="70" y="471"/>
      <point x="67" y="271"/>
      <point x="67" y="244" type="curve"/>
      <point x="67" y="213"/>
      <point x="67" y="191"/>
      <point x="67" y="185" type="curve"/>
      <point x="67" y="178"/>
      <point x="71" y="170"/>
      <point x="83" y="170" type="curve"/>
      <point x="96" y="170"/>
      <point x="248" y="177"/>
      <point x="273" y="177" type="curve"/>
      <point x="300" y="177"/>
      <point x="410" y="170"/>
      <point x="422" y="170" type="curve"/>
      <point x="434" y="170"/>
      <point x="444" y="168"/>
      <point x="444" y="178" type="curve"/>
      <point x="444" y="187"/>
      <point x="442" y="199"/>
      <point x="443" y="204" type="curve"/>
      <point x="444" y="209"/>
      <point x="446" y="214"/>
      <point x="437" y="214" type="curve"/>
      <point x="437" y="214"/>
      <point x="437" y="214"/>
    </contour>
  </outline>
</glyph>
<glyph name="Ldot.alt" format="1">
  <advance width="579"/>
  <outline>
    <contour>
      <point x="448" y="425" type="curve"/>
      <point x="448" y="457"/>
      <point x="442" y="514"/>
      <point x="372" y="514" type="curve"/>
      <point x="339" y="514"/>
      <point x="300" y="505"/>
      <point x="300" y="446" type="curve"/>
      <point x="300" y="391"/>
      <point x="336" y="366"/>
      <point x="372" y="366" type="curve"/>
      <point x="409" y="366"/>
      <point x="448" y="392"/>
    </contour>
    <component base="L.alt"/>
  </outline>
</glyph>
<glyph name="O.alt" format="1">
  <advance width="639"/>
  <outline>
    <contour>
      <point x="599" y="356" type="curve"/>
      <point x="599" y="409"/>
      <point x="570" y="609"/>
      <point x="437" y="698" type="curve"/>
      <point x="402" y="721"/>
      <point x="354" y="719"/>
      <point x="299" y="719" type="curve"/>
      <point x="168" y="719"/>
      <point x="40" y="556"/>
      <point x="40" y="376" type="curve"/>
      <point x="43" y="303"/>
      <point x="55" y="239"/>
      <point x="75" y="182" type="curve"/>
      <point x="110" y="85"/>
      <point x="176" y="-11"/>
      <point x="311" y="-11" type="curve"/>
      <point x="580" y="-11"/>
      <point x="599" y="288"/>
    </contour>
    <contour>
      <point x="516" y="356" type="curve"/>
      <point x="516" y="192"/>
      <point x="456" y="45"/>
      <point x="306" y="45" type="curve"/>
      <point x="157" y="45"/>
      <point x="104" y="208"/>
      <point x="104" y="365" type="curve"/>
      <point x="104" y="522"/>
      <point x="198" y="603"/>
      <point x="227" y="632" type="curve"/>
      <point x="255" y="663"/>
      <point x="283" y="660"/>
      <point x="320" y="660" type="curve"/>
      <point x="439" y="660"/>
      <point x="516" y="519"/>
    </contour>
    <contour>
      <point x="319" y="0" type="move" name="bottom"/>
    </contour>
    <contour>
      <point x="337" y="710" type="move" name="top"/>
    </contour>
  </outline>
</glyph>
<glyph name="Q.alt" format="1">
  <advance width="590"/>
  <outline>
    <contour>
      <point x="379" y="24" type="curve"/>
      <point x="390" y="31"/>
      <point x="398" y="40"/>
      <point x="404" y="49" type="curve"/>
      <point x="405" y="50" type="line"/>
      <point x="408" y="54" type="line"/>
      <point x="436" y="22" type="line"/>
      <point x="445" y="7"/>
      <point x="452" y="4"/>
      <point x="468" y="4" type="curve"/>
      <point x="542" y="3" type="line" smooth="yes"/>
      <point x="549" y="3"/>
      <point x="555" y="4"/>
      <point x="555" y="9" type="curve"/>
      <point x="555" y="13"/>
      <point x="552" y="18"/>
      <point x="544" y="26" type="curve"/>
      <point x="536" y="34"/>
      <point x="496" y="81"/>
      <point x="458" y="127" type="curve"/>
      <point x="489" y="182"/>
      <point x="521" y="257"/>
      <point x="521" y="342" type="curve"/>
      <point x="521" y="505"/>
      <point x="461" y="712"/>
      <point x="289" y="712" type="curve"/>
      <point x="236" y="712"/>
      <point x="40" y="663"/>
      <point x="40" y="360" type="curve"/>
      <point x="40" y="55"/>
      <point x="236" y="5"/>
      <point x="292" y="1" type="curve"/>
      <point x="333" y="-2"/>
      <point x="360" y="12"/>
    </contour>
    <contour>
      <point x="404" y="298" type="curve"/>
      <point x="404" y="263"/>
      <point x="396" y="236"/>
      <point x="384" y="216" type="curve"/>
      <point x="372" y="229" type="line" smooth="yes"/>
      <point x="361" y="240"/>
      <point x="366" y="244"/>
      <point x="345" y="244" type="curve"/>
      <point x="329" y="244"/>
      <point x="296" y="240"/>
      <point x="280" y="240" type="curve"/>
      <point x="276" y="240"/>
      <point x="273" y="240"/>
      <point x="271" y="241" type="curve"/>
      <point x="266" y="242"/>
      <point x="259" y="241"/>
      <point x="259" y="234" type="curve"/>
      <point x="259" y="230"/>
      <point x="262" y="224"/>
      <point x="269" y="213" type="curve"/>
      <point x="276" y="205"/>
      <point x="292" y="184"/>
      <point x="315" y="160" type="curve"/>
      <point x="301" y="155"/>
      <point x="287" y="153"/>
      <point x="274" y="153" type="curve"/>
      <point x="226" y="153"/>
      <point x="157" y="223"/>
      <point x="157" y="364" type="curve"/>
      <point x="157" y="505"/>
      <point x="241" y="578"/>
      <point x="292" y="578" type="curve"/>
      <point x="394" y="578"/>
      <point x="405" y="472"/>
      <point x="405" y="371" type="curve"/>
      <point x="405" y="346"/>
      <point x="404" y="321"/>
    </contour>
  </outline>
</glyph>
<glyph name="X.alt" format="1">
  <advance width="584"/>
  <outline>
    <contour>
      <point x="289" y="651" type="curve"/>
      <point x="284" y="619"/>
      <point x="251" y="509"/>
      <point x="239" y="509" type="curve"/>
      <point x="231" y="509"/>
      <point x="212" y="554"/>
      <point x="201" y="567" type="curve"/>
      <point x="190" y="580"/>
      <point x="156" y="650"/>
      <point x="148" y="664" type="curve"/>
      <point x="139" y="680"/>
      <point x="130" y="691"/>
      <point x="113" y="691" type="curve"/>
      <point x="96" y="691"/>
      <point x="83" y="693"/>
      <point x="72" y="692" type="curve"/>
      <point x="65" y="692"/>
      <point x="60" y="688"/>
      <point x="60" y="682" type="curve"/>
      <point x="60" y="678"/>
      <point x="62" y="673"/>
      <point x="66" y="667" type="curve"/>
      <point x="77" y="654"/>
      <point x="117" y="585"/>
      <point x="125" y="566" type="curve"/>
      <point x="136" y="544"/>
      <point x="178" y="478"/>
      <point x="191" y="460" type="curve"/>
      <point x="204" y="441"/>
      <point x="210" y="439"/>
      <point x="210" y="424" type="curve"/>
      <point x="210" y="412"/>
      <point x="187" y="360"/>
      <point x="179" y="340" type="curve"/>
      <point x="171" y="319"/>
      <point x="138" y="228"/>
      <point x="122" y="190" type="curve"/>
      <point x="106" y="152"/>
      <point x="66" y="68"/>
      <point x="58" y="49" type="curve"/>
      <point x="53" y="38"/>
      <point x="48" y="24"/>
      <point x="48" y="13" type="curve"/>
      <point x="48" y="6"/>
      <point x="51" y="1"/>
      <point x="59" y="1" type="curve"/>
      <point x="81" y="1"/>
      <point x="171" y="-1"/>
      <point x="193" y="-1" type="curve"/>
      <point x="198" y="-2"/>
      <point x="202" y="-2"/>
      <point x="206" y="-2" type="curve"/>
      <point x="222" y="-2"/>
      <point x="232" y="3"/>
      <point x="239" y="19" type="curve"/>
      <point x="247" y="40"/>
      <point x="295" y="179"/>
      <point x="306" y="204" type="curve"/>
      <point x="315" y="231"/>
      <point x="318" y="252"/>
      <point x="325" y="252" type="curve"/>
      <point x="333" y="252"/>
      <point x="363" y="202"/>
      <point x="379" y="175" type="curve"/>
      <point x="395" y="148"/>
      <point x="438" y="74"/>
      <point x="454" y="53" type="curve"/>
      <point x="467" y="30"/>
      <point x="472" y="2"/>
      <point x="483" y="2" type="curve"/>
      <point x="494" y="2"/>
      <point x="530" y="4"/>
      <point x="543" y="4" type="curve"/>
      <point x="551" y="4"/>
      <point x="554" y="7"/>
      <point x="554" y="11" type="curve"/>
      <point x="554" y="16"/>
      <point x="551" y="24"/>
      <point x="543" y="33" type="curve"/>
      <point x="528" y="52"/>
      <point x="405" y="257"/>
      <point x="389" y="280" type="curve"/>
      <point x="372" y="301"/>
      <point x="359" y="314"/>
      <point x="359" y="335" type="curve"/>
      <point x="359" y="355"/>
      <point x="389" y="420"/>
      <point x="402" y="449" type="curve"/>
      <point x="413" y="478"/>
      <point x="458" y="608"/>
      <point x="471" y="636" type="curve"/>
      <point x="478" y="649"/>
      <point x="482" y="661"/>
      <point x="482" y="671" type="curve"/>
      <point x="482" y="682"/>
      <point x="478" y="689"/>
      <point x="468" y="692" type="curve"/>
      <point x="446" y="700"/>
      <point x="408" y="699"/>
      <point x="382" y="699" type="curve"/>
      <point x="361" y="699"/>
      <point x="339" y="695"/>
      <point x="324" y="695" type="curve"/>
      <point x="308" y="695"/>
      <point x="294" y="683"/>
    </contour>
  </outline>
</glyph>
<glyph name="dotlessI" format="1">
  <advance width="246"/>
  <outline>
    <contour>
      <point x="67" y="667" type="curve"/>
      <point x="67" y="625" type="line"/>
      <point x="65" y="589" type="line" smooth="yes"/>
      <point x="64" y="570"/>
      <point x="63" y="547"/>
      <point x="63" y="535" type="curve"/>
      <point x="63" y="511"/>
      <point x="59" y="372"/>
      <point x="59" y="346" type="curve"/>
      <point x="59" y="319"/>
      <point x="46" y="145"/>
      <point x="46" y="108" type="curve"/>
      <point x="46" y="73"/>
      <point x="37" y="39"/>
      <point x="40" y="23" type="curve"/>
      <point x="41" y="6"/>
      <point x="41" y="-9"/>
      <point x="64" y="-8" type="curve"/>
      <point x="155" y="-8" type="line"/>
      <point x="170" y="-9"/>
      <point x="186" y="-8"/>
      <point x="185" y="11" type="curve"/>
      <point x="185" y="26"/>
      <point x="183" y="68"/>
      <point x="183" y="96" type="curve"/>
      <point x="183" y="106"/>
      <point x="183" y="115"/>
      <point x="184" y="119" type="curve"/>
      <point x="185" y="123"/>
      <point x="185" y="131"/>
      <point x="185" y="142" type="curve"/>
      <point x="185" y="178"/>
      <point x="182" y="241"/>
      <point x="182" y="259" type="curve"/>
      <point x="182" y="276"/>
      <point x="180" y="340"/>
      <point x="180" y="411" type="curve"/>
      <point x="180" y="437"/>
      <point x="180" y="465"/>
      <point x="181" y="491" type="curve"/>
      <point x="182" y="586"/>
      <point x="190" y="643"/>
      <point x="193" y="666" type="curve"/>
      <point x="194" y="675"/>
      <point x="196" y="682"/>
      <point x="196" y="688" type="curve"/>
      <point x="196" y="697"/>
      <point x="191" y="702"/>
      <point x="174" y="704" type="curve"/>
      <point x="145" y="707"/>
      <point x="112" y="704"/>
      <point x="95" y="705" type="curve"/>
      <point x="92" y="706"/>
      <point x="89" y="706"/>
      <point x="87" y="706" type="curve"/>
      <point x="76" y="706"/>
      <point x="67" y="699"/>
    </contour>
    <contour>
      <point x="111" y="0" type="move" name="bottom"/>
    </contour>
    <contour>
      <point x="138" y="710" type="move" name="top"/>
    </contour>
  </outline>
</glyph>
<glyph name="dotlessi.alt" format="1">
  <advance width="262"/>
  <outline>
    <contour>
      <point x="63" y="548" type="curve"/>
      <point x="63" y="513" type="line"/>
      <point x="61" y="484" type="line" smooth="yes"/>
      <point x="60" y="468"/>
      <point x="59" y="449"/>
      <point x="59" y="439" type="curve"/>
      <point x="59" y="419"/>
      <point x="55" y="305"/>
      <point x="55" y="283" type="curve"/>
      <point x="55" y="261"/>
      <point x="43" y="118"/>
      <point x="43" y="87" type="curve"/>
      <point x="43" y="59"/>
      <point x="35" y="31"/>
      <point x="38" y="17" type="curve"/>
      <point x="39" y="3"/>
      <point x="39" y="-9"/>
      <point x="60" y="-8" type="curve"/>
      <point x="187" y="-8" type="line"/>
      <point x="201" y="-9"/>
      <point x="216" y="-8"/>
      <point x="215" y="7" type="curve"/>
      <point x="215" y="20"/>
      <point x="213" y="54"/>
      <point x="213" y="77" type="curve"/>
      <point x="213" y="86"/>
      <point x="213" y="93"/>
      <point x="214" y="96" type="curve"/>
      <point x="215" y="100"/>
      <point x="215" y="106"/>
      <point x="215" y="115" type="curve"/>
      <point x="215" y="145"/>
      <point x="212" y="197"/>
      <point x="212" y="212" type="curve"/>
      <point x="212" y="226"/>
      <point x="210" y="278"/>
      <point x="210" y="337" type="curve"/>
      <point x="210" y="358"/>
      <point x="210" y="381"/>
      <point x="211" y="403" type="curve"/>
      <point x="212" y="481"/>
      <point x="219" y="528"/>
      <point x="222" y="547" type="curve"/>
      <point x="223" y="554"/>
      <point x="225" y="560"/>
      <point x="225" y="565" type="curve"/>
      <point x="225" y="573"/>
      <point x="220" y="577"/>
      <point x="205" y="578" type="curve"/>
      <point x="178" y="581"/>
      <point x="105" y="578"/>
      <point x="89" y="579" type="curve"/>
      <point x="86" y="580"/>
      <point x="83" y="580"/>
      <point x="82" y="580" type="curve"/>
      <point x="71" y="580"/>
      <point x="63" y="574"/>
    </contour>
    <contour>
      <point x="167" y="0" type="move" name="bottom"/>
    </contour>
    <contour>
      <point x="153" y="602" type="move" name="top"/>
    </contour>
  </outline>
</glyph>
<glyph name="f_i.alt" format="1">
  <advance width="506"/>
  <outline>
    <contour>
      <point x="18" y="581" type="curve"/>
      <point x="33" y="581"/>
      <point x="51" y="580"/>
      <point x="68" y="579" type="curve"/>
      <point x="69" y="679"/>
      <point x="76" y="739"/>
      <point x="176" y="739" type="curve"/>
      <point x="211" y="739"/>
      <point x="230" y="735"/>
      <point x="266" y="721" type="curve"/>
      <point x="266" y="721"/>
      <point x="270" y="718"/>
      <point x="267" y="714" type="curve"/>
      <point x="262" y="697" type="line"/>
      <point x="262" y="695"/>
      <point x="262" y="682"/>
      <point x="251" y="682" type="curve"/>
      <point x="238" y="682"/>
      <point x="226" y="685"/>
      <point x="190" y="685" type="curve"/>
      <point x="143" y="685"/>
      <point x="129" y="666"/>
      <point x="128" y="622" type="curve"/>
      <point x="128" y="602" type="line" smooth="yes"/>
      <point x="128" y="595"/>
      <point x="127" y="587"/>
      <point x="127" y="579" type="curve"/>
      <point x="156" y="580"/>
      <point x="403" y="587"/>
      <point x="431" y="581" type="curve"/>
      <point x="436" y="580"/>
      <point x="444" y="580"/>
      <point x="449" y="578" type="curve"/>
      <point x="464" y="577"/>
      <point x="469" y="573"/>
      <point x="469" y="565" type="curve"/>
      <point x="469" y="560"/>
      <point x="467" y="554"/>
      <point x="466" y="547" type="curve"/>
      <point x="463" y="528"/>
      <point x="455" y="481"/>
      <point x="455" y="403" type="curve"/>
      <point x="455" y="381"/>
      <point x="454" y="358"/>
      <point x="454" y="337" type="curve"/>
      <point x="454" y="278"/>
      <point x="456" y="226"/>
      <point x="456" y="212" type="curve"/>
      <point x="456" y="197"/>
      <point x="459" y="145"/>
      <point x="459" y="115" type="curve"/>
      <point x="459" y="106"/>
      <point x="459" y="100"/>
      <point x="458" y="96" type="curve"/>
      <point x="457" y="93"/>
      <point x="457" y="86"/>
      <point x="457" y="77" type="curve"/>
      <point x="457" y="54"/>
      <point x="459" y="20"/>
      <point x="459" y="7" type="curve"/>
      <point x="460" y="-8"/>
      <point x="445" y="-9"/>
      <point x="431" y="-8" type="curve"/>
      <point x="304" y="-8" type="line"/>
      <point x="283" y="-9"/>
      <point x="283" y="3"/>
      <point x="282" y="17" type="curve"/>
      <point x="279" y="31"/>
      <point x="287" y="59"/>
      <point x="287" y="87" type="curve"/>
      <point x="287" y="118"/>
      <point x="299" y="261"/>
      <point x="299" y="283" type="curve"/>
      <point x="299" y="304"/>
      <point x="303" y="416"/>
      <point x="303" y="439" type="curve"/>
      <point x="303" y="447"/>
      <point x="304" y="460"/>
      <point x="304" y="473" type="curve"/>
      <point x="226" y="472"/>
      <point x="150" y="472"/>
      <point x="128" y="473" type="curve"/>
      <point x="128" y="467"/>
      <point x="129" y="459"/>
      <point x="129" y="457" type="curve"/>
      <point x="125" y="219" type="line" smooth="yes"/>
      <point x="122" y="120"/>
      <point x="127" y="61"/>
      <point x="130" y="37" type="curve"/>
      <point x="131" y="27"/>
      <point x="131" y="20"/>
      <point x="131" y="14" type="curve"/>
      <point x="131" y="4"/>
      <point x="125" y="-1"/>
      <point x="111" y="-3" type="curve"/>
      <point x="105" y="-6"/>
      <point x="96" y="-3"/>
      <point x="93" y="-4" type="curve"/>
      <point x="90" y="-5"/>
      <point x="87" y="-5"/>
      <point x="85" y="-5" type="curve"/>
      <point x="75" y="-5"/>
      <point x="67" y="2"/>
      <point x="69" y="36" type="curve"/>
      <point x="69" y="117" type="line"/>
      <point x="68" y="137"/>
      <point x="69" y="160"/>
      <point x="69" y="173" type="curve"/>
      <point x="72" y="367" type="line"/>
      <point x="73" y="381"/>
      <point x="70" y="434"/>
      <point x="69" y="476" type="curve"/>
      <point x="59" y="476" type="line" smooth="yes"/>
      <point x="7" y="477"/>
      <point x="14" y="502"/>
    </contour>
    <contour>
      <point x="316" y="675" type="curve"/>
      <point x="316" y="644"/>
      <point x="330" y="605"/>
      <point x="386" y="605" type="curve"/>
      <point x="441" y="605"/>
      <point x="467" y="639"/>
      <point x="467" y="675" type="curve"/>
      <point x="467" y="715"/>
      <point x="446" y="755"/>
      <point x="411" y="755" type="curve"/>
      <point x="377" y="755"/>
      <point x="316" y="746"/>
    </contour>
  </outline>
</glyph>
<glyph name="iacute_jloclNLD.alt" format="1">
  <advance width="524"/>
  <outline>
    <contour>
      <point x="471" y="212" type="curve"/>
      <point x="469" y="199"/>
      <point x="473" y="136"/>
      <point x="473" y="96" type="curve"/>
      <point x="469" y="-62"/>
      <point x="464" y="-163"/>
      <point x="326" y="-160" type="curve"/>
      <point x="279" y="-159"/>
      <point x="249" y="-156"/>
      <point x="216" y="-134" type="curve"/>
      <point x="213" y="-132"/>
      <point x="211" y="-128"/>
      <point x="214" y="-122" type="curve"/>
      <point x="220" y="-111"/>
      <point x="224" y="-97"/>
      <point x="224" y="-97" type="curve"/>
      <point x="234" y="-68" type="line" smooth="yes"/>
      <point x="236" y="-62"/>
      <point x="239" y="-45"/>
      <point x="244" y="-45" type="curve"/>
      <point x="256" y="-45"/>
      <point x="269" y="-48"/>
      <point x="298" y="-48" type="curve"/>
      <point x="319" y="-48"/>
      <point x="328" y="-39"/>
      <point x="330" y="-15" type="curve"/>
      <point x="330" y="5" type="line" smooth="yes"/>
      <point x="332" y="41"/>
      <point x="331" y="106"/>
      <point x="331" y="122" type="curve"/>
      <point x="331" y="140"/>
      <point x="331" y="206"/>
      <point x="337" y="280" type="curve"/>
      <point x="337" y="307"/>
      <point x="340" y="333"/>
      <point x="339" y="360" type="curve"/>
      <point x="344" y="459"/>
      <point x="340" y="518"/>
      <point x="337" y="542" type="curve"/>
      <point x="336" y="552"/>
      <point x="337" y="559"/>
      <point x="337" y="565" type="curve"/>
      <point x="337" y="575"/>
      <point x="342" y="580"/>
      <point x="357" y="582" type="curve"/>
      <point x="384" y="585"/>
      <point x="428" y="582"/>
      <point x="443" y="583" type="curve"/>
      <point x="446" y="584"/>
      <point x="462" y="584"/>
      <point x="464" y="584" type="curve"/>
      <point x="474" y="584"/>
      <point x="482" y="577"/>
      <point x="479" y="543" type="curve"/>
      <point x="479" y="500" type="line"/>
      <point x="478" y="462" type="line" smooth="yes"/>
      <point x="479" y="442"/>
      <point x="477" y="419"/>
      <point x="477" y="406" type="curve"/>
      <point x="474" y="381"/>
      <point x="472" y="239"/>
    </contour>
    <contour>
      <point x="63" y="548" type="curve"/>
      <point x="63" y="513" type="line"/>
      <point x="61" y="484" type="line" smooth="yes"/>
      <point x="60" y="468"/>
      <point x="59" y="449"/>
      <point x="59" y="439" type="curve"/>
      <point x="59" y="419"/>
      <point x="55" y="305"/>
      <point x="55" y="283" type="curve"/>
      <point x="55" y="261"/>
      <point x="43" y="118"/>
      <point x="43" y="87" type="curve"/>
      <point x="43" y="59"/>
      <point x="35" y="31"/>
      <point x="38" y="17" type="curve"/>
      <point x="39" y="3"/>
      <point x="39" y="-9"/>
      <point x="60" y="-8" type="curve"/>
      <point x="187" y="-8" type="line"/>
      <point x="201" y="-9"/>
      <point x="216" y="-8"/>
      <point x="215" y="7" type="curve"/>
      <point x="215" y="20"/>
      <point x="213" y="54"/>
      <point x="213" y="77" type="curve"/>
      <point x="213" y="86"/>
      <point x="213" y="93"/>
      <point x="214" y="96" type="curve"/>
      <point x="215" y="100"/>
      <point x="215" y="106"/>
      <point x="215" y="115" type="curve"/>
      <point x="215" y="145"/>
      <point x="212" y="197"/>
      <point x="212" y="212" type="curve"/>
      <point x="212" y="226"/>
      <point x="210" y="278"/>
      <point x="210" y="337" type="curve"/>
      <point x="210" y="358"/>
      <point x="210" y="381"/>
      <point x="211" y="403" type="curve"/>
      <point x="212" y="481"/>
      <point x="219" y="528"/>
      <point x="222" y="547" type="curve"/>
      <point x="223" y="554"/>
      <point x="225" y="560"/>
      <point x="225" y="565" type="curve"/>
      <point x="225" y="573"/>
      <point x="220" y="577"/>
      <point x="205" y="578" type="curve"/>
      <point x="178" y="581"/>
      <point x="105" y="578"/>
      <point x="89" y="579" type="curve"/>
      <point x="86" y="580"/>
      <point x="83" y="580"/>
      <point x="82" y="580" type="curve"/>
      <point x="71" y="580"/>
      <point x="63" y="574"/>
    </contour>
    <component base="acute" xOffset="289" yOffset="-108"/>
    <component base="acute" xOffset="29" yOffset="-108"/>
  </outline>
</glyph>
<glyph name="nine.ss01" format="1">
  <advance width="500"/>
  <outline>
    <contour>
      <point x="434" y="564" type="curve"/>
      <point x="401" y="646"/>
      <point x="342" y="717"/>
      <point x="250" y="717" type="curve"/>
      <point x="180" y="717"/>
      <point x="21" y="660"/>
      <point x="21" y="431" type="curve"/>
      <point x="21" y="395"/>
      <point x="25" y="370"/>
      <point x="33" y="355" type="curve"/>
      <point x="41" y="341"/>
      <point x="51" y="326"/>
      <point x="64" y="310" type="curve"/>
      <point x="77" y="295"/>
      <point x="92" y="283"/>
      <point x="108" y="274" type="curve"/>
      <point x="156" y="250"/>
      <point x="207" y="248"/>
      <point x="233" y="248" type="curve"/>
      <point x="257" y="248"/>
      <point x="307" y="248"/>
      <point x="331" y="269" type="curve"/>
      <point x="345" y="275"/>
      <point x="359" y="286"/>
      <point x="372" y="301" type="curve"/>
      <point x="374" y="284"/>
      <point x="375" y="268"/>
      <point x="375" y="253" type="curve"/>
      <point x="375" y="236"/>
      <point x="374" y="220"/>
      <point x="371" y="206" type="curve"/>
      <point x="366" y="182"/>
      <point x="361" y="142"/>
      <point x="342" y="114" type="curve"/>
      <point x="323" y="86"/>
      <point x="280" y="67"/>
      <point x="252" y="67" type="curve"/>
      <point x="195" y="67"/>
      <point x="173" y="95"/>
      <point x="148" y="116" type="curve"/>
      <point x="135" y="127"/>
      <point x="128" y="144"/>
      <point x="124" y="149" type="curve"/>
      <point x="116" y="160"/>
      <point x="108" y="168"/>
      <point x="92" y="168" type="curve"/>
      <point x="72" y="168"/>
      <point x="66" y="166"/>
      <point x="57" y="161" type="curve"/>
      <point x="52" y="159"/>
      <point x="49" y="155"/>
      <point x="46" y="149" type="curve"/>
      <point x="43" y="144"/>
      <point x="47" y="130"/>
      <point x="58" y="107" type="curve"/>
      <point x="93" y="49"/>
      <point x="144" y="-32"/>
      <point x="251" y="-32" type="curve"/>
      <point x="358" y="-32"/>
      <point x="408" y="55"/>
      <point x="440" y="114" type="curve"/>
      <point x="468" y="172"/>
      <point x="466" y="272"/>
      <point x="469" y="351" type="curve"/>
      <point x="465" y="390"/>
      <point x="465" y="484"/>
    </contour>
    <contour>
      <point x="253" y="642" type="curve"/>
      <point x="370" y="642"/>
      <point x="366" y="491"/>
      <point x="366" y="438" type="curve"/>
      <point x="360" y="383"/>
      <point x="304" y="325"/>
      <point x="254" y="325" type="curve"/>
      <point x="208" y="325"/>
      <point x="116" y="362"/>
      <point x="116" y="468" type="curve"/>
      <point x="116" y="573"/>
      <point x="163" y="642"/>
    </contour>
  </outline>
</glyph>
<glyph name="one.ss01" format="1">
  <advance width="500"/>
  <outline>
    <contour>
      <point x="238" y="462" type="curve"/>
      <point x="237" y="450"/>
      <point x="237" y="428"/>
      <point x="237" y="396" type="curve"/>
      <point x="237" y="330" type="line" smooth="yes"/>
      <point x="237" y="306"/>
      <point x="238" y="250"/>
      <point x="239" y="209" type="curve"/>
      <point x="240" y="168"/>
      <point x="243" y="157"/>
      <point x="243" y="136" type="curve"/>
      <point x="243" y="125"/>
      <point x="168" y="118"/>
      <point x="59" y="114" type="curve"/>
      <point x="49" y="111"/>
      <point x="45" y="92"/>
      <point x="47" y="55" type="curve"/>
      <point x="50" y="18"/>
      <point x="55" y="0"/>
      <point x="62" y="0" type="curve"/>
      <point x="78" y="0"/>
      <point x="92" y="0"/>
      <point x="105" y="0" type="curve"/>
      <point x="184" y="0"/>
      <point x="217" y="-2"/>
      <point x="226" y="-2" type="curve"/>
      <point x="237" y="-2"/>
      <point x="292" y="2"/>
      <point x="307" y="2" type="curve"/>
      <point x="314" y="2"/>
      <point x="325" y="2"/>
      <point x="338" y="3" type="curve"/>
      <point x="352" y="4"/>
      <point x="385" y="3"/>
      <point x="438" y="0" type="curve"/>
      <point x="455" y="-1"/>
      <point x="463" y="5"/>
      <point x="463" y="18" type="curve"/>
      <point x="463" y="30"/>
      <point x="461" y="62"/>
      <point x="460" y="114" type="curve"/>
      <point x="460" y="120"/>
      <point x="397" y="125"/>
      <point x="310" y="128" type="curve"/>
      <point x="303" y="156"/>
      <point x="305" y="176"/>
      <point x="303" y="212" type="curve"/>
      <point x="302" y="231"/>
      <point x="302" y="247"/>
      <point x="302" y="260" type="curve"/>
      <point x="303" y="571" type="line"/>
      <point x="304" y="610"/>
      <point x="306" y="640"/>
      <point x="306" y="691" type="curve"/>
      <point x="306" y="698"/>
      <point x="298" y="704"/>
      <point x="283" y="704" type="curve"/>
      <point x="276" y="704"/>
      <point x="268" y="703"/>
      <point x="258" y="700" type="curve"/>
      <point x="163" y="671"/>
      <point x="116" y="659"/>
      <point x="85" y="645" type="curve"/>
      <point x="78" y="642"/>
      <point x="74" y="638"/>
      <point x="74" y="632" type="curve"/>
      <point x="75" y="626"/>
      <point x="73" y="606"/>
      <point x="68" y="571" type="curve"/>
      <point x="68" y="566"/>
      <point x="69" y="562"/>
      <point x="71" y="559" type="curve"/>
      <point x="72" y="556"/>
      <point x="90" y="553"/>
      <point x="126" y="550" type="curve"/>
      <point x="149" y="548"/>
      <point x="170" y="547"/>
      <point x="189" y="547" type="curve"/>
      <point x="200" y="547"/>
      <point x="230" y="548"/>
      <point x="240" y="548" type="curve"/>
      <point x="239" y="505"/>
      <point x="239" y="476"/>
    </contour>
  </outline>
</glyph>
<glyph name="t.alt" format="1">
  <advance width="336"/>
  <outline>
    <contour>
      <point x="69" y="581" type="curve"/>
      <point x="23" y="581" type="line"/>
      <point x="22" y="574"/>
      <point x="19" y="570"/>
      <point x="22" y="544" type="curve"/>
      <point x="22" y="543"/>
      <point x="24" y="539"/>
      <point x="31" y="539" type="curve"/>
      <point x="69" y="539" type="line"/>
      <point x="70" y="503"/>
      <point x="68" y="392"/>
      <point x="69" y="368" type="curve"/>
      <point x="69" y="346"/>
      <point x="72" y="229"/>
      <point x="70" y="162" type="curve"/>
      <point x="70" y="58"/>
      <point x="50" y="-7"/>
      <point x="188" y="-4" type="curve"/>
      <point x="235" y="-3"/>
      <point x="269" y="-2"/>
      <point x="306" y="22" type="curve"/>
      <point x="307" y="23"/>
      <point x="313" y="28"/>
      <point x="310" y="34" type="curve"/>
      <point x="304" y="45"/>
      <point x="300" y="59"/>
      <point x="300" y="59" type="curve"/>
      <point x="292" y="88" type="line" smooth="yes"/>
      <point x="292" y="90"/>
      <point x="287" y="111"/>
      <point x="281" y="111" type="curve"/>
      <point x="265" y="111"/>
      <point x="270" y="108"/>
      <point x="229" y="108" type="curve"/>
      <point x="214" y="108"/>
      <point x="207" y="118"/>
      <point x="207" y="145" type="curve"/>
      <point x="207" y="165" type="line" smooth="yes"/>
      <point x="207" y="200"/>
      <point x="202" y="260"/>
      <point x="202" y="278" type="curve"/>
      <point x="202" y="296"/>
      <point x="204" y="362"/>
      <point x="202" y="436" type="curve"/>
      <point x="202" y="463"/>
      <point x="201" y="506"/>
      <point x="202" y="533" type="curve"/>
      <point x="202" y="537" type="line"/>
      <point x="239" y="537"/>
      <point x="259" y="539"/>
      <point x="294" y="541" type="curve"/>
      <point x="298" y="541"/>
      <point x="302" y="546"/>
      <point x="302" y="551" type="curve"/>
      <point x="302" y="562"/>
      <point x="301" y="545"/>
      <point x="300" y="557" type="curve"/>
      <point x="299" y="563"/>
      <point x="299" y="570"/>
      <point x="298" y="576" type="curve"/>
      <point x="297" y="583"/>
      <point x="284" y="582"/>
      <point x="278" y="582" type="curve"/>
      <point x="251" y="582"/>
      <point x="232" y="583"/>
      <point x="202" y="583" type="curve"/>
      <point x="204" y="630"/>
      <point x="208" y="650"/>
      <point x="210" y="668" type="curve"/>
      <point x="211" y="678"/>
      <point x="212" y="685"/>
      <point x="212" y="691" type="curve"/>
      <point x="212" y="701"/>
      <point x="207" y="706"/>
      <point x="192" y="708" type="curve"/>
      <point x="165" y="711"/>
      <point x="111" y="708"/>
      <point x="96" y="709" type="curve"/>
      <point x="93" y="710"/>
      <point x="90" y="710"/>
      <point x="88" y="710" type="curve"/>
      <point x="78" y="710"/>
      <point x="70" y="703"/>
      <point x="71" y="669" type="curve"/>
      <point x="71" y="626" type="line"/>
      <point x="70" y="588" type="line" smooth="yes"/>
      <point x="70" y="586"/>
      <point x="69" y="583"/>
    </contour>
    <contour>
      <point x="194" y="0" type="move" name="bottom"/>
    </contour>
    <contour>
      <point x="188" y="582" type="move" name="top"/>
    </contour>
  </outline>
</glyph>
<glyph name="tbar.alt" format="1">
  <advance width="336"/>
  <outline>
    <contour>
      <point x="301" y="337" type="curve"/>
      <point x="301" y="378" type="line"/>
      <point x="301" y="384"/>
      <point x="305" y="393"/>
      <point x="293" y="393" type="curve"/>
      <point x="131" y="393" type="line"/>
      <point x="45" y="390" type="line"/>
      <point x="40" y="391"/>
      <point x="36" y="392"/>
      <point x="32" y="392" type="curve"/>
      <point x="26" y="392"/>
      <point x="22" y="390"/>
      <point x="22" y="387" type="curve"/>
      <point x="20" y="381"/>
      <point x="26" y="350"/>
      <point x="26" y="340" type="curve"/>
      <point x="26" y="330"/>
      <point x="21" y="325"/>
      <point x="42" y="325" type="curve"/>
      <point x="52" y="325"/>
      <point x="84" y="326"/>
      <point x="117" y="326" type="curve"/>
      <point x="152" y="326"/>
      <point x="271" y="331"/>
      <point x="278" y="331" type="curve"/>
      <point x="283" y="331"/>
      <point x="288" y="330"/>
      <point x="292" y="330" type="curve"/>
      <point x="298" y="330"/>
      <point x="301" y="332"/>
    </contour>
    <component base="t.alt"/>
  </outline>
</glyph>
<glyph name="uni019D.alt" format="1">
  <advance width="597"/>
  <outline>
    <contour>
      <point x="-47" y="-99" type="curve"/>
      <point x="-61" y="-129"/>
      <point x="-41" y="-141"/>
      <point x="-25" y="-147" type="curve"/>
      <point x="8" y="-159"/>
      <point x="50" y="-165"/>
      <point x="68" y="-165" type="curve"/>
      <point x="118" y="-165"/>
      <point x="148" y="-148"/>
      <point x="164" y="-127" type="curve"/>
      <point x="178" y="-109"/>
      <point x="189" y="-82"/>
      <point x="189" y="-55" type="curve"/>
      <point x="189" y="-50"/>
      <point x="188" y="-11"/>
      <point x="188" y="-6" type="curve"/>
      <point x="188" y="20"/>
      <point x="188" y="58"/>
      <point x="189" y="92" type="curve"/>
      <point x="188" y="125"/>
      <point x="185" y="207"/>
      <point x="185" y="269" type="curve"/>
      <point x="184" y="292"/>
      <point x="185" y="316"/>
      <point x="185" y="339" type="curve"/>
      <point x="185" y="377" type="line"/>
      <point x="229" y="294" type="line" smooth="yes"/>
      <point x="253" y="249"/>
      <point x="280" y="198"/>
      <point x="295" y="173" type="curve"/>
      <point x="325" y="122"/>
      <point x="351" y="61"/>
      <point x="365" y="34" type="curve"/>
      <point x="377" y="8"/>
      <point x="386" y="-3"/>
      <point x="413" y="-3" type="curve"/>
      <point x="435" y="-3"/>
      <point x="468" y="1"/>
      <point x="490" y="1" type="curve"/>
      <point x="496" y="1"/>
      <point x="502" y="1"/>
      <point x="506" y="0" type="curve"/>
      <point x="511" y="-1"/>
      <point x="515" y="-1"/>
      <point x="518" y="-1" type="curve"/>
      <point x="527" y="-1"/>
      <point x="532" y="2"/>
      <point x="534" y="10" type="curve"/>
      <point x="534" y="15" type="line"/>
      <point x="532" y="47"/>
      <point x="527" y="197"/>
      <point x="527" y="265" type="curve"/>
      <point x="527" y="491" type="line" smooth="yes"/>
      <point x="527" y="585"/>
      <point x="527" y="675"/>
      <point x="529" y="690" type="curve"/>
      <point x="533" y="721"/>
      <point x="533" y="738"/>
      <point x="505" y="735" type="curve"/>
      <point x="477" y="730"/>
      <point x="416" y="727"/>
      <point x="395" y="727" type="curve"/>
      <point x="374" y="727"/>
      <point x="344" y="729"/>
      <point x="344" y="700" type="curve"/>
      <point x="343" y="685"/>
      <point x="343" y="652"/>
      <point x="343" y="623" type="curve"/>
      <point x="343" y="568" type="line"/>
      <point x="328" y="591" type="line" smooth="yes"/>
      <point x="319" y="604"/>
      <point x="308" y="621"/>
      <point x="299" y="638" type="curve"/>
      <point x="280" y="670"/>
      <point x="259" y="725"/>
      <point x="217" y="725" type="curve"/>
      <point x="188" y="725"/>
      <point x="182" y="727"/>
      <point x="171" y="727" type="curve"/>
      <point x="166" y="727"/>
      <point x="160" y="727"/>
      <point x="149" y="725" type="curve"/>
      <point x="117" y="718"/>
      <point x="106" y="718"/>
      <point x="90" y="719" type="curve"/>
      <point x="76" y="720"/>
      <point x="64" y="716"/>
      <point x="64" y="688" type="curve"/>
      <point x="64" y="681"/>
      <point x="65" y="674"/>
      <point x="66" y="665" type="curve"/>
      <point x="68" y="651"/>
      <point x="69" y="627"/>
      <point x="69" y="598" type="curve"/>
      <point x="69" y="524"/>
      <point x="64" y="413"/>
      <point x="64" y="328" type="curve"/>
      <point x="67" y="207"/>
      <point x="72" y="87"/>
      <point x="72" y="56" type="curve"/>
      <point x="72" y="34"/>
      <point x="75" y="-29"/>
      <point x="75" y="-41" type="curve"/>
      <point x="75" y="-52"/>
      <point x="75" y="-77"/>
      <point x="62" y="-77" type="curve"/>
      <point x="43" y="-77"/>
      <point x="36" y="-65"/>
      <point x="19" y="-45" type="curve"/>
      <point x="13" y="-38"/>
      <point x="7" y="-33"/>
      <point x="0" y="-37" type="curve"/>
      <point x="-9" y="-42"/>
      <point x="-29" y="-60"/>
    </contour>
  </outline>
</glyph>
<glyph name="zero.ss01" format="1">
  <advance width="500"/>
  <outline>
    <contour>
      <point x="108" y="51" type="curve"/>
      <point x="144" y="20"/>
      <point x="192" y="4"/>
      <point x="251" y="4" type="curve"/>
      <point x="378" y="8"/>
      <point x="448" y="82"/>
      <point x="460" y="206" type="curve"/>
      <point x="466" y="268"/>
      <point x="469" y="324"/>
      <point x="469" y="374" type="curve"/>
      <point x="469" y="474"/>
      <point x="462" y="573"/>
      <point x="425" y="632" type="curve"/>
      <point x="389" y="692"/>
      <point x="337" y="718"/>
      <point x="222" y="721" type="curve"/>
      <point x="149" y="720"/>
      <point x="101" y="696"/>
      <point x="77" y="650" type="curve"/>
      <point x="54" y="604"/>
      <point x="40" y="557"/>
      <point x="36" y="510" type="curve"/>
      <point x="32" y="463"/>
      <point x="30" y="409"/>
      <point x="30" y="347" type="curve"/>
      <point x="30" y="285"/>
      <point x="34" y="228"/>
      <point x="42" y="176" type="curve"/>
      <point x="51" y="125"/>
      <point x="73" y="83"/>
    </contour>
    <contour>
      <point x="159" y="609" type="curve"/>
      <point x="186" y="654"/>
      <point x="225" y="663"/>
      <point x="264" y="663" type="curve"/>
      <point x="283" y="663"/>
      <point x="305" y="655"/>
      <point x="329" y="639" type="curve"/>
      <point x="354" y="623"/>
      <point x="370" y="597"/>
      <point x="377" y="562" type="curve"/>
      <point x="385" y="527"/>
      <point x="390" y="489"/>
      <point x="392" y="449" type="curve"/>
      <point x="394" y="410"/>
      <point x="395" y="384"/>
      <point x="395" y="373" type="curve"/>
      <point x="395" y="363"/>
      <point x="394" y="336"/>
      <point x="391" y="292" type="curve"/>
      <point x="388" y="248"/>
      <point x="381" y="209"/>
      <point x="369" y="175" type="curve"/>
      <point x="345" y="107"/>
      <point x="315" y="68"/>
      <point x="252" y="68" type="curve"/>
      <point x="216" y="68"/>
      <point x="167" y="95"/>
      <point x="144" y="155" type="curve"/>
      <point x="133" y="185"/>
      <point x="125" y="219"/>
      <point x="122" y="258" type="curve"/>
      <point x="119" y="297"/>
      <point x="117" y="328"/>
      <point x="117" y="349" type="curve"/>
      <point x="117" y="424"/>
      <point x="121" y="481"/>
      <point x="128" y="518" type="curve"/>
      <point x="135" y="556"/>
      <point x="146" y="586"/>
    </contour>
    <contour>
      <point x="312" y="368" type="curve"/>
      <point x="312" y="392"/>
      <point x="308" y="433"/>
      <point x="261" y="433" type="curve"/>
      <point x="238" y="433"/>
      <point x="212" y="427"/>
      <point x="212" y="383" type="curve"/>
      <point x="212" y="343"/>
      <point x="237" y="325"/>
      <point x="261" y="325" type="curve"/>
      <point x="286" y="325"/>
      <point x="312" y="344"/>
    </contour>
  </outline>
</glyph>
